<svg width="71" height="24" viewBox="0 0 71 24" fill="none" xmlns="http://www.w3.org/2000/svg">
<path fill-rule="evenodd" clip-rule="evenodd" d="M25.7468 16.6953C25.7317 16.0297 25.8023 15.7752 25.9088 15.1075C26.6384 14.6539 27.7201 14.4755 28.482 14.8946C28.9398 14.5706 29.589 14.6922 30.4772 14.7145C29.6816 16.5498 28.2755 17.0774 25.7468 16.6953ZM70.3798 2.18903C68.874 -0.32994 63.7755 -0.504548 61.2565 0.799748C56.4487 3.45126 52.3073 7.12895 45.6255 6.8866C41.9457 6.74986 38.6097 7.3267 35.0532 7.70579C29.3181 8.32891 23.4277 9.33616 17.5504 8.96801C14.9599 8.80939 13.2601 6.41749 10.4079 5.79563C6.20887 4.88221 2.11044 5.23856 0 7.771C0.848213 12.2456 5.84619 13.743 10.7466 14.6122C8.4712 19.4642 16.4577 22.9387 18.2702 18.6787C18.7406 18.791 18.9708 18.6206 19.3196 18.5954C19.7647 19.5172 21.6113 19.3031 21.6778 20.5363C22.9577 20.8931 24.111 20.795 24.3243 19.5728C25.86 19.704 26.9358 19.6961 28.5523 19.8076C28.3891 21.5986 29.4842 22.3627 30.2702 23.3843C36.5203 25.5519 39.1011 16.1984 33.5995 14.6472C37.3904 14.255 42.783 14.2942 46.6732 14.3552C46.4965 16.3137 48.9002 17.0096 50.6 16.6465C50.8709 16.4244 50.1081 15.7386 50.6109 15.6018C51.2155 15.6666 50.8032 16.0533 51.2029 16.2363C51.6712 15.8576 52.2282 15.5854 52.5509 15.0464C52.8307 15.4196 53.0512 15.8349 53.3869 16.1707C56.1499 16.8729 58.1666 15.8429 60.6254 16.5207C60.635 16.5073 60.6422 16.4917 60.6468 16.4795C60.6245 16.3941 60.609 16.3108 60.5989 16.2275C60.5135 16.1071 60.3994 16.023 60.5892 15.9439C60.5854 16.0352 60.5879 16.129 60.5989 16.2275C60.6477 16.2952 60.6868 16.3772 60.6468 16.4795C60.9801 17.743 62.7009 18.9194 64.4882 18.5083C66.9685 17.9496 68.2399 13.9386 66.7589 11.8387C65.893 11.3528 65.0676 10.8256 63.9648 10.5197C66.9823 9.3168 68.8046 6.64426 71 4.42864C70.9891 3.52068 70.3302 3.14832 70.3798 2.18903Z" fill="black"/>
<path fill-rule="evenodd" clip-rule="evenodd" d="M1.49512 9.81208C3.09604 10.5029 3.92784 11.83 5.46985 12.5751C10.1855 14.4798 17.3217 14.232 22.5734 14.3872C18.1556 13.032 14.6765 8.39796 9.04152 8.11733C6.56588 7.99658 3.10319 8.32897 1.49512 9.81208Z" fill="white"/>
<path fill-rule="evenodd" clip-rule="evenodd" d="M37.1553 13.7381C36.9428 13.7604 36.7329 13.7848 36.5166 13.8159C36.7341 13.7848 36.9449 13.7629 37.1553 13.7381Z" fill="white"/>
<path fill-rule="evenodd" clip-rule="evenodd" d="M54.6905 13.5634C54.7843 13.2419 54.6598 12.6634 54.876 12.5056C48.8641 12.9432 42.7532 13.0808 37.1553 13.7376C42.4974 13.1687 49.3029 14.5672 54.6905 13.5634Z" fill="white"/>
<path fill-rule="evenodd" clip-rule="evenodd" d="M54.876 12.5059C54.9504 12.4995 55.0228 12.492 55.0952 12.4886C55.0889 12.481 55.0863 12.4743 55.0826 12.4676C54.9908 12.4524 54.9252 12.4676 54.876 12.5059Z" fill="white"/>
<path fill-rule="evenodd" clip-rule="evenodd" d="M60.8957 11.9149C58.9902 12.1614 57.0459 12.3398 55.0949 12.4883C56.0408 13.9386 54.0637 14.1961 53.916 15.5576C54.4049 15.7873 54.9683 15.9578 55.6646 16.0171C56.2137 15.3885 55.8363 14.4258 56.1005 13.6075C56.6268 13.4497 57.1359 13.2642 57.8306 13.305C58.0532 13.0218 57.8727 12.2384 58.4815 12.4328C58.7895 12.5557 58.5408 13.1199 58.7773 13.305C59.3474 13.2419 59.9646 13.2642 60.3841 13.2772C60.3454 12.6819 61.223 12.1761 60.8957 11.9149Z" fill="white"/>
<path fill-rule="evenodd" clip-rule="evenodd" d="M56.917 13.8817C55.7705 16.0267 58.9412 15.7141 60.3376 15.635C60.3435 14.9917 60.4028 14.5015 60.4028 14.0395C59.2925 13.7841 58.0812 13.9007 56.917 13.8817Z" fill="white"/>
<path fill-rule="evenodd" clip-rule="evenodd" d="M52.8867 14.508C54.0602 14.2409 53.0268 15.4951 52.8867 14.508Z" fill="white"/>
<path fill-rule="evenodd" clip-rule="evenodd" d="M35.21 13.775C35.3703 14.0228 35.7855 14.2681 35.9505 13.8499C35.8629 13.6686 35.305 13.4405 35.21 13.775Z" fill="white"/>
<path fill-rule="evenodd" clip-rule="evenodd" d="M19.4862 15.0265C19.381 17.5467 20.2048 19.3088 23.4239 19.1068C22.9245 18.0272 23.4753 16.502 25.0863 16.6303C26.0607 13.4277 21.5226 15.5978 19.4862 15.0265Z" fill="white"/>
<path fill-rule="evenodd" clip-rule="evenodd" d="M18.7455 14.9531C18.6542 14.943 18.5583 14.9333 18.4573 14.9253C18.3513 15.1411 18.5116 15.7571 18.7342 15.9839C18.8478 15.5509 18.6959 15.3364 18.7455 14.9531Z" fill="white"/>
<path fill-rule="evenodd" clip-rule="evenodd" d="M23.9373 17.7419C23.7 19.533 27.1829 19.209 28.451 18.9519C28.6092 18.5085 28.6795 17.9687 28.7889 17.4734C27.0794 17.4154 25.5202 17.9644 23.9373 17.7419Z" fill="white"/>
<path fill-rule="evenodd" clip-rule="evenodd" d="M16.5597 16.9018C16.4599 17.1248 16.388 17.3861 16.3838 17.7391C16.9804 18.164 18.2813 17.9882 19.0984 18.0117C19.2259 16.6704 17.6889 16.6759 16.5597 16.9018Z" fill="white"/>
<path fill-rule="evenodd" clip-rule="evenodd" d="M23.3606 19.7573C22.9235 19.6589 22.5086 19.5385 21.9672 19.5255C21.7829 20.3245 23.2024 20.2508 23.3606 19.7573Z" fill="white"/>
<path fill-rule="evenodd" clip-rule="evenodd" d="M13.1797 17.6987C13.5297 17.6731 14.1053 17.3684 13.9008 17.0112C13.624 17.1942 13.4149 17.4652 13.1797 17.6987Z" fill="white"/>
<path fill-rule="evenodd" clip-rule="evenodd" d="M62.7718 12.0133C63.0162 12.0268 63.092 11.8572 63.1429 12.1454C63.2064 13.1636 62.059 12.8918 62.3073 13.8583C61.7834 13.9138 61.0005 14.2096 61.0901 14.6733C61.6063 14.2874 62.2198 14.9417 62.5686 15.0162C62.2421 15.1786 61.839 15.2362 61.5011 15.3788C61.4124 16.1732 62.2223 16.0196 62.6599 15.9628C62.8189 16.1677 62.646 16.2052 62.6136 16.4361C62.8496 16.5333 63.0848 16.1096 63.1908 16.4008C63.2552 16.7593 62.9325 16.644 62.9493 16.9372C63.3612 17.0361 63.36 17.2865 63.6621 17.2932C63.7041 17.6319 63.4513 17.6765 63.6065 17.8582C64.2431 18.2188 64.9197 17.8052 65.2491 17.4577C61.6497 17.114 62.6624 11.6532 66.322 12.4644C65.8078 11.0873 63.8375 11.5341 62.7718 12.0133Z" fill="white"/>
<path fill-rule="evenodd" clip-rule="evenodd" d="M65.5903 13.1417C65.3614 13.1063 65.1418 13.0815 65.021 13.1783C65.5083 13.7842 65.146 16.017 64.6016 16.4462C66.0022 16.6216 66.5382 15.7377 66.6072 14.284C65.8617 14.528 65.8453 13.5851 65.5903 13.1417Z" fill="white"/>
<path fill-rule="evenodd" clip-rule="evenodd" d="M50.3518 14.3483C50.0733 14.9886 49.4346 15.1839 49.1699 15.8352C49.2267 16.0417 49.3681 16.1928 49.7001 16.176C49.3542 15.5087 50.1082 14.9306 50.611 14.6562C50.7822 15.1241 50.0623 15.2987 49.9327 15.7237C50.478 15.3017 50.9459 14.7951 51.6514 14.5725C50.9698 14.5843 50.9253 14.2494 50.3518 14.3483Z" fill="white"/>
<path fill-rule="evenodd" clip-rule="evenodd" d="M48.3799 15.1934C48.7758 15.1218 48.9155 14.731 49.1267 14.4154C48.7001 14.4617 48.637 14.9531 48.3799 15.1934Z" fill="white"/>
<path fill-rule="evenodd" clip-rule="evenodd" d="M48.5068 15.7705C49.0938 15.5311 49.5482 15.1482 49.775 14.4809C49.2402 14.7755 48.6903 15.0485 48.5068 15.7705Z" fill="white"/>
<path fill-rule="evenodd" clip-rule="evenodd" d="M47.8867 14.4801C47.5724 14.5037 47.4542 14.372 47.2366 14.319C46.9009 14.8832 47.45 15.24 47.7861 15.5093C47.7979 15.3864 47.8093 15.2648 47.8215 15.139C47.6666 15.0835 47.5631 15.2535 47.5337 15.1125C47.5657 14.7982 47.8791 14.8201 47.8867 14.4801Z" fill="white"/>
<path fill-rule="evenodd" clip-rule="evenodd" d="M61.6747 17.3756C61.8644 17.4833 61.9221 17.6953 62.2031 17.7197C62.1808 17.4155 61.9637 17.283 61.8989 17.0209C61.8775 17.2077 61.633 17.1143 61.6747 17.3756Z" fill="white"/>
<path fill-rule="evenodd" clip-rule="evenodd" d="M34.4633 15.4921C28.8258 11.9053 26.6114 24.2342 33.26 22.7364C30.0114 21.4329 31.5257 15.9743 34.4633 15.4921Z" fill="white"/>
<path fill-rule="evenodd" clip-rule="evenodd" d="M12.7801 16.8987C12.3703 16.9226 12.343 17.4078 11.8044 17.2719C12.3152 16.045 13.5829 15.7379 14.2304 14.6831C12.8504 15.3142 10.8645 16.5932 11.9719 18.4209C12.4406 18.4739 12.7191 17.7418 13.0595 17.972C12.8727 18.2055 12.0531 18.6553 12.5638 19.0566C13.0788 18.4087 14.4391 17.8386 14.2556 16.2979C13.2425 16.4531 12.9223 18.0199 12.019 17.9589C13.1756 16.9563 14.1282 15.7113 15.2684 14.6974C14.211 15.0996 12.9446 15.7542 12.7801 16.8987Z" fill="white"/>
<path fill-rule="evenodd" clip-rule="evenodd" d="M35.0008 16.6826C35.8869 18.2742 35.1535 20.7793 34.2178 21.7041C35.8166 21.1407 36.9804 17.6153 35.0008 16.6826Z" fill="white"/>
<path fill-rule="evenodd" clip-rule="evenodd" d="M12.3999 15.0708C12.7012 15.0186 12.9351 14.8911 13.1067 14.6623C12.686 14.5735 12.5775 14.8726 12.3999 15.0708Z" fill="white"/>
<path fill-rule="evenodd" clip-rule="evenodd" d="M33.3657 16.9864C33.5193 17.522 33.7738 17.9747 34.081 18.3799C34.2072 17.6533 34.0103 17.1774 33.7684 16.747C33.6619 16.8618 33.4995 16.9048 33.3657 16.9864Z" fill="white"/>
<path fill-rule="evenodd" clip-rule="evenodd" d="M17.3879 15.2878C17.1703 15.558 17.4144 15.7877 17.1182 16.0103C17.4169 16.0077 17.5507 16.2808 17.7792 16.0789C17.6891 15.781 17.7055 15.3989 17.3879 15.2878Z" fill="white"/>
<path fill-rule="evenodd" clip-rule="evenodd" d="M34.3901 17.1839C35.1475 18.8075 33.9845 20.7934 32.6672 21.1645C32.6491 21.4662 32.8401 21.5987 33.186 21.5962C34.4629 21.0042 35.6801 18.2744 34.3901 17.1839Z" fill="white"/>
<path fill-rule="evenodd" clip-rule="evenodd" d="M15.7343 15.683C15.4823 16.2712 15.1667 16.4668 15.3977 17.1623C16.0856 17.2772 16.2834 15.8597 15.7343 15.683Z" fill="white"/>
<path fill-rule="evenodd" clip-rule="evenodd" d="M16.4492 16.1362C16.6848 16.1484 16.9297 16.1708 16.9419 15.8998C16.6529 15.8262 16.5502 15.9768 16.4492 16.1362Z" fill="white"/>
<path fill-rule="evenodd" clip-rule="evenodd" d="M15.5385 17.6541C15.4851 17.8699 15.3854 18.0277 15.2949 18.1914C15.6227 18.464 15.8385 18.8381 16.356 18.9639C16.3093 18.3382 16.0405 17.9032 15.5385 17.6541Z" fill="white"/>
<path fill-rule="evenodd" clip-rule="evenodd" d="M13.5778 19.3448C13.5749 18.5652 14.4395 18.8462 14.3676 18.0073C13.5833 18.0556 13.37 18.8008 12.916 19.2796C13.3271 19.3511 13.4895 19.6162 13.8177 19.7407C14.0205 19.4012 14.3764 19.2451 14.5716 18.8752C14.1564 18.5614 14.1353 19.5064 13.5778 19.3448Z" fill="white"/>
<path fill-rule="evenodd" clip-rule="evenodd" d="M16.8288 18.9139C16.7274 19.2597 17.5176 19.2143 17.4027 18.8752C17.1179 18.7754 17.0455 18.9416 16.8288 18.9139Z" fill="white"/>
<path fill-rule="evenodd" clip-rule="evenodd" d="M16.6237 19.084C16.3726 19.3696 16.0423 19.559 15.8799 19.949C16.3145 19.9574 16.5472 19.721 16.7693 19.4757C16.511 19.5173 16.8821 19.0461 16.6237 19.084Z" fill="white"/>
<path fill-rule="evenodd" clip-rule="evenodd" d="M14.9078 19.2894C14.5889 19.321 14.3672 19.4775 14.3672 19.8911C14.5157 19.8553 14.8452 20.0505 14.8523 19.8461C14.5776 19.7017 14.9819 19.5368 14.9078 19.2894Z" fill="white"/>
<path fill-rule="evenodd" clip-rule="evenodd" d="M68.9285 4.41089C64.3571 11.1903 53.5395 10.8663 44.2306 11.37C53.0371 9.70888 63.5367 10.6543 68.5654 4.28258C68.6445 4.23966 68.7282 4.19927 68.8565 4.21778C68.8645 4.29351 68.9381 4.31707 68.9285 4.41089ZM69.0139 1.67735C62.4318 -2.03526 57.0022 4.50558 51.9003 6.57436C53.2626 6.66145 55.3171 6.04799 56.3193 6.73464C51.6436 7.99855 45.8694 6.96691 41.1137 7.65356C34.1189 8.67427 26.6146 8.70793 18.9083 9.58222C25.4054 14.5903 36.7111 11.1179 44.037 11.4444C39.5031 12.8076 33.7785 12.0953 28.5857 12.912C26.395 13.2591 25.2194 13.5275 23.483 12.8733C19.9067 11.542 16.0965 10.199 13.9911 7.66492C10.4535 6.07788 4.48319 5.03781 1.55273 7.35904C1.61795 7.64977 1.83926 7.81301 1.74838 8.2367C4.9965 7.19452 8.85679 7.0115 12.5341 8.09112C18.1981 9.75473 21.5215 15.5201 29.1134 14.1978C35.6424 13.0588 43.6878 12.7209 51.1324 12.2569C58.6839 11.781 63.3713 10.9976 67.718 7.03128C68.7126 6.12206 70.0746 4.80681 70.0619 3.48358C68.44 5.1737 68.9697 3.0557 69.0139 1.67735Z" fill="white"/>
</svg>
