<svg width="236" height="261" viewBox="0 0 236 261" fill="none" xmlns="http://www.w3.org/2000/svg">
<path d="M207.797 53.097C205.023 56.4638 200.889 58.4141 196.526 58.4141H155.658C142.648 58.4141 136.132 74.1442 145.332 83.3439L186.135 124.147C191.838 129.85 191.838 139.097 186.135 144.8L74.8189 256.116C72.0802 258.855 68.3657 260.394 64.4926 260.394H23.1874C10.177 260.394 3.66135 244.663 12.8611 235.464L103.525 144.8C109.228 139.097 109.228 129.85 103.525 124.147L4.3066 24.9299C-4.8932 15.7302 1.62245 0 14.6329 0H220.591C232.935 0 239.711 14.3638 231.862 23.8901L207.797 53.097Z" fill="white"/>
</svg>
