<svg width="17" height="17" viewBox="0 0 17 17" fill="none" xmlns="http://www.w3.org/2000/svg">
<path d="M1.4771e-07 4.45605C1.77056e-07 1.99513 1.99513 2.37916e-08 4.45605 5.31379e-08L12.3867 1.4771e-07C14.8476 1.77056e-07 16.8428 1.99513 16.8428 4.45605L16.8428 12.3867C16.8428 14.8476 14.8476 16.8428 12.3867 16.8428L4.45605 16.8428C1.99513 16.8428 2.37916e-08 14.8476 5.31379e-08 12.3867L1.4771e-07 4.45605ZM1.37793 12.1699C1.378 14.0156 2.87505 15.5117 4.7207 15.5117L12.1221 15.5117C13.9677 15.5117 15.4648 14.0156 15.4648 12.1699L15.4648 10.7979C15.4648 8.95216 13.9678 7.45605 12.1221 7.45605L4.7207 7.45605C2.87501 7.45605 1.37793 8.95216 1.37793 10.7979L1.37793 12.1699Z" fill="white"/>
</svg>
