<svg width="583" height="228" viewBox="0 0 583 228" fill="none" xmlns="http://www.w3.org/2000/svg">
<g clip-path="url(#clip0_341_50)">
<mask id="mask0_341_50" style="mask-type:luminance" maskUnits="userSpaceOnUse" x="0" y="0" width="583" height="228">
<path d="M582.637 0H0.636719V227.678H582.637V0Z" fill="white"/>
</mask>
<g mask="url(#mask0_341_50)">
<path fill-rule="evenodd" clip-rule="evenodd" d="M77.6767 111.07H43.5065L57.1148 63.6087C60.1162 53.1693 60.9115 46.0482 60.9115 46.0482H61.3838C61.3838 46.0482 62.0176 53.4862 64.7081 63.6087L77.6767 111.07ZM95.554 162.012C94.3057 162.033 93.0854 161.641 92.0837 160.895C91.0821 160.15 90.3555 159.094 90.0174 157.892V157.737L82.2686 130.843H38.4422L30.3765 157.737C30.024 158.943 29.2981 160.005 28.3032 160.773C27.3083 161.54 26.0957 161.971 24.8399 162.006H6.49618C4.94991 161.984 3.47295 161.361 2.37891 160.268C1.28487 159.175 0.659904 157.699 0.636719 156.152C0.636719 155.524 0.792174 155.046 0.953608 154.418V154.257L44.6126 20.4221C45.2464 17.8929 47.62 16.153 50.3106 16.153H75.303C77.8381 16.153 80.0504 17.8869 80.8396 20.1052L124.343 154.096C124.505 154.729 124.66 155.363 124.66 155.997C124.66 159.166 122.131 161.85 118.968 161.85H95.554V162.012ZM127.984 15.9916C127.984 13.6179 129.407 11.7225 131.309 10.7719L149.814 1.12175C150.77 0.493949 152.349 0.015625 153.611 0.015625C156.779 0.015625 159.47 2.54476 159.47 5.86911V127.842C159.625 135.112 165.951 140.81 173.228 140.81C176.397 140.81 179.081 143.339 179.081 146.664V156.152C179.081 159.321 176.552 162.012 173.228 162.012H166.741C161.628 162.016 156.565 161.012 151.841 159.057C147.117 157.102 142.825 154.235 139.211 150.62C135.596 147.004 132.73 142.712 130.776 137.988C128.822 133.264 127.818 128.201 127.823 123.088V15.9976L127.984 15.9916ZM272.259 55.0646C273.292 55.5353 274.169 56.2923 274.786 57.246C275.403 58.1997 275.733 59.3101 275.738 60.4458V160.744C275.738 192.541 255.966 207.883 226.854 208.995C212.779 209.623 200.911 206.304 191.099 202.029C190.008 201.578 189.078 200.808 188.429 199.821C187.781 198.833 187.445 197.674 187.464 196.493C187.464 195.704 187.625 195.07 187.781 194.436L190.95 186.364C191.739 183.997 193.951 182.257 196.642 182.257C197.431 182.257 198.22 182.412 198.854 182.735C205.186 185.103 212.935 186.843 221 186.843C238.088 186.843 244.259 178.771 244.259 165.964V159.794C240.462 161.85 234.13 163.273 224.797 163.273C198.065 163.273 178.764 142.705 178.764 109.33C178.764 71.9973 197.909 48.5833 236.187 48.5833C250.902 48.5833 263.715 51.2739 272.259 55.0646ZM244.097 142.078C241.407 143.812 237.138 144.768 232.869 144.768C216.731 144.768 210.089 132.744 210.089 107.429C210.089 80.6968 216.893 67.2499 233.502 67.2499C237.927 67.2499 241.568 67.8837 244.097 69.1453V142.078ZM352.306 146.03V103.477C333.95 102.054 318.764 108.858 318.764 126.413C318.764 139.387 326.518 147.136 339.965 147.136C348.665 147.136 352.306 146.03 352.306 146.03ZM383.947 108.218V151.566C383.947 153.94 382.518 155.991 380.306 156.948H380.15C370.345 160.744 355.624 163.429 338.225 163.429C304.528 163.429 286.656 151.249 286.656 128.152C286.656 99.5189 310.226 86.3888 352.145 88.4516C351.2 77.3724 344.713 70.5743 329.048 70.5743C320.982 70.5743 313.233 72.3082 306.901 74.6819C306.209 75.0066 305.453 75.1701 304.689 75.1602C301.998 75.1602 299.786 73.4203 298.991 71.0466L295.828 62.9749C295.511 62.3471 295.511 61.7133 295.511 60.9181C295.511 58.389 297.096 56.3322 299.152 55.3815C308.803 51.1125 320.665 47.7881 334.907 48.4219C364.013 49.528 383.786 64.8762 383.786 96.6728V108.218H383.947ZM399.606 62.8194C399.606 58.2335 402.775 54.5923 406.883 53.1693C417.645 49.528 431.72 47.6327 452.921 48.2664H453.077C456.24 48.2664 458.93 50.7956 458.93 54.1199V62.0302C458.93 65.1931 456.24 67.8837 453.071 67.8837H452.443C444.694 67.2499 435.2 68.8284 431.086 70.7297V156.308C431.029 157.827 430.389 159.266 429.299 160.326C428.209 161.386 426.753 161.985 425.232 162H405.46C404.69 162.002 403.928 161.852 403.216 161.559C402.504 161.266 401.858 160.835 401.313 160.291C400.769 159.747 400.337 159.101 400.043 158.39C399.749 157.678 399.599 156.916 399.6 156.146V155.829L399.606 62.8194Z" fill="white"/>
<path d="M482.345 54.2754C482.345 52.38 483.451 50.4787 485.191 49.3726C486.113 48.8521 487.159 48.5917 488.217 48.6191C489.275 48.6465 490.306 48.9606 491.2 49.528L525.053 68.9898C526.793 70.0959 527.905 71.8358 527.905 73.8926C527.905 76.1049 526.638 78.0062 524.736 79.1123C524.736 79.1123 491.044 98.5741 490.883 98.7296C490.007 99.1965 489.029 99.4408 488.037 99.4408C487.044 99.4408 486.067 99.1965 485.191 98.7296C484.277 98.211 483.527 97.4476 483.024 96.5253C482.521 95.6031 482.286 94.5587 482.345 93.5099V77.5339V54.2754Z" fill="#B2B2B2"/>
<path d="M536.597 85.4367C536.597 83.5414 537.709 81.6401 539.449 80.5339C540.371 80.0144 541.417 79.755 542.475 79.7834C543.534 79.8118 544.564 80.127 545.458 80.6954L579.317 100.151C580.186 100.64 580.908 101.352 581.408 102.214C581.909 103.077 582.169 104.057 582.163 105.054C582.163 107.266 580.895 109.167 578.994 110.274C578.994 110.274 545.302 129.735 545.147 129.735C544.268 130.216 543.277 130.454 542.276 130.426C541.275 130.398 540.299 130.103 539.449 129.574C538.535 129.055 537.785 128.292 537.282 127.37C536.779 126.447 536.544 125.403 536.603 124.354L536.597 85.4367Z" fill="white"/>
<path d="M482.345 116.76C482.345 114.864 483.451 112.963 485.191 111.857C486.113 111.336 487.159 111.076 488.217 111.103C489.275 111.131 490.306 111.445 491.2 112.012L525.053 131.474C525.923 131.962 526.646 132.674 527.148 133.537C527.649 134.399 527.911 135.38 527.905 136.377C527.905 138.589 526.638 140.646 524.736 141.597C524.736 141.597 491.044 161.058 490.883 161.058C490.005 161.538 489.015 161.776 488.015 161.747C487.015 161.719 486.04 161.425 485.191 160.897C484.277 160.378 483.527 159.615 483.024 158.693C482.521 157.77 482.286 156.726 482.345 155.677V139.701V116.76Z" fill="#B2B2B2"/>
<path d="M382.68 188.424V181.147H355.625V188.424H363.697V227.025H374.608V188.424H382.68ZM404.037 205.667L391.38 207.563C391.063 200.131 393.753 196.49 398.022 196.49C401.98 196.49 404.037 199.336 404.037 205.667ZM413.843 209.464C414.321 197.285 408.94 190.319 398.501 190.319C388.061 190.319 382.202 197.596 382.202 208.83C382.202 220.22 388.534 227.497 399.762 227.497C405.933 227.497 409.891 226.229 412.737 224.968L410.363 218.48C408.468 219.431 405.143 220.376 400.874 220.376C395.493 220.376 392.803 217.847 392.169 212.472L413.843 209.464ZM429.347 174.66H418.752V226.863H429.197V174.66H429.347ZM456.24 205.667L443.583 207.563C443.266 200.131 445.956 196.49 450.231 196.49C454.184 196.49 456.24 199.336 456.24 205.667ZM466.046 209.464C466.524 197.285 461.143 190.319 450.704 190.319C440.264 190.319 434.411 197.596 434.411 208.83C434.411 220.22 440.737 227.497 451.971 227.497C458.136 227.497 462.094 226.229 464.946 224.968L462.566 218.48C460.671 219.431 457.346 220.376 453.077 220.376C447.696 220.376 445.006 217.847 444.378 212.472L466.046 209.464ZM493.418 224.968L491.206 218.636C490.094 219.593 488.826 220.065 486.769 220.065C482.662 220.065 480.133 215.79 480.133 208.675C480.133 201.392 482.345 197.285 486.931 197.285C488.988 197.285 490.255 197.913 491.2 198.708L493.412 193.01C491.834 191.742 488.988 190.481 484.557 190.481C476.485 190.481 469.687 196.806 469.687 208.986C469.687 221.01 476.013 227.658 484.557 227.658C488.982 227.497 491.834 226.391 493.418 224.968ZM516.198 208.83C516.198 215.318 515.248 220.537 510.662 220.537C506.076 220.537 505.125 215.318 505.125 208.83C505.125 202.504 506.07 196.812 510.662 196.812C515.253 196.812 516.198 202.343 516.198 208.83ZM526.638 208.986C526.638 198.229 521.101 190.481 510.5 190.481C500.061 190.481 494.524 198.391 494.524 208.986C494.524 219.581 500.061 227.658 510.5 227.658C521.101 227.658 526.638 219.587 526.638 208.986ZM582.637 226.863V201.709C582.637 195.383 578.213 190.319 569.663 190.319C563.654 190.319 560.019 191.904 557.645 193.96C555.588 191.904 552.108 190.319 546.093 190.319C539.768 190.319 535.498 191.114 531.385 193.01V226.863H541.824V197.44C543.092 196.962 544.198 196.806 546.093 196.806C549.735 196.806 551.791 198.708 551.791 201.554V226.863H562.231V198.546C563.498 197.285 564.921 196.812 566.817 196.812C570.458 196.812 572.036 198.863 572.036 201.715V226.863H582.637Z" fill="#808285"/>
</g>
</g>
<defs>
<clipPath id="clip0_341_50">
<rect width="583" height="228" fill="white"/>
</clipPath>
</defs>
</svg>
