<svg width="583" height="228" viewBox="0 0 583 228" fill="none" xmlns="http://www.w3.org/2000/svg">
<g clip-path="url(#clip0_306_171)">
<path fill-rule="evenodd" clip-rule="evenodd" d="M77.6767 111.072H43.5065L57.1148 63.6107C60.1162 53.1713 60.9115 46.0502 60.9115 46.0502H61.3838C61.3838 46.0502 62.0176 53.4882 64.7081 63.6107L77.6767 111.072ZM95.554 162.014C94.3057 162.035 93.0854 161.643 92.0837 160.897C91.0821 160.152 90.3555 159.096 90.0174 157.894V157.739L82.2686 130.845H38.4422L30.3765 157.739C30.024 158.945 29.2981 160.007 28.3032 160.775C27.3083 161.542 26.0957 161.973 24.8399 162.008H6.49618C4.94991 161.986 3.47295 161.363 2.37891 160.27C1.28487 159.177 0.659904 157.701 0.636719 156.154C0.636719 155.526 0.792174 155.048 0.953608 154.42V154.259L44.6126 20.4241C45.2464 17.8949 47.62 16.155 50.3106 16.155H75.303C77.8381 16.155 80.0504 17.8889 80.8396 20.1072L124.343 154.098C124.505 154.731 124.66 155.365 124.66 155.999C124.66 159.168 122.131 161.852 118.968 161.852H95.554V162.014ZM127.984 15.9936C127.984 13.6199 129.407 11.7245 131.309 10.7739L149.814 1.1237C150.77 0.495902 152.349 0.0175781 153.611 0.0175781C156.779 0.0175781 159.47 2.54671 159.47 5.87106V127.844C159.625 135.114 165.951 140.812 173.228 140.812C176.397 140.812 179.081 143.341 179.081 146.666V156.154C179.081 159.323 176.552 162.014 173.228 162.014H166.741C161.628 162.018 156.565 161.014 151.841 159.059C147.117 157.104 142.825 154.237 139.211 150.622C135.596 147.006 132.73 142.714 130.776 137.99C128.822 133.266 127.818 128.203 127.823 123.09V15.9996L127.984 15.9936ZM272.259 55.0666C273.292 55.5373 274.169 56.2943 274.786 57.248C275.403 58.2017 275.733 59.3121 275.738 60.4478V160.746C275.738 192.543 255.966 207.885 226.854 208.997C212.779 209.625 200.911 206.306 191.099 202.031C190.008 201.58 189.078 200.81 188.429 199.823C187.781 198.835 187.445 197.676 187.464 196.495C187.464 195.706 187.625 195.072 187.781 194.438L190.95 186.366C191.739 183.999 193.951 182.259 196.642 182.259C197.431 182.259 198.22 182.414 198.854 182.737C205.186 185.105 212.935 186.845 221 186.845C238.088 186.845 244.259 178.773 244.259 165.966V159.796C240.462 161.852 234.13 163.275 224.797 163.275C198.065 163.275 178.764 142.707 178.764 109.332C178.764 71.9993 197.909 48.5853 236.187 48.5853C250.902 48.5853 263.715 51.2759 272.259 55.0666ZM244.097 142.08C241.407 143.814 237.138 144.77 232.869 144.77C216.731 144.77 210.089 132.746 210.089 107.431C210.089 80.6988 216.893 67.2519 233.502 67.2519C237.927 67.2519 241.568 67.8857 244.097 69.1473V142.08ZM352.306 146.032V103.479C333.95 102.056 318.764 108.86 318.764 126.415C318.764 139.389 326.518 147.138 339.965 147.138C348.665 147.138 352.306 146.032 352.306 146.032ZM383.947 108.22V151.568C383.947 153.942 382.518 155.993 380.306 156.95H380.15C370.345 160.746 355.624 163.431 338.225 163.431C304.528 163.431 286.656 151.251 286.656 128.154C286.656 99.5208 310.226 86.3908 352.145 88.4536C351.2 77.3744 344.713 70.5763 329.048 70.5763C320.982 70.5763 313.233 72.3102 306.901 74.6839C306.209 75.0086 305.453 75.1721 304.689 75.1622C301.998 75.1622 299.786 73.4223 298.991 71.0486L295.828 62.9769C295.511 62.3491 295.511 61.7153 295.511 60.9201C295.511 58.391 297.096 56.3342 299.152 55.3835C308.803 51.1145 320.665 47.7901 334.907 48.4239C364.013 49.53 383.786 64.8782 383.786 96.6748V108.22H383.947ZM399.606 62.8214C399.606 58.2355 402.775 54.5943 406.883 53.1713C417.645 49.53 431.72 47.6347 452.921 48.2684H453.077C456.24 48.2684 458.93 50.7976 458.93 54.1219V62.0322C458.93 65.1951 456.24 67.8857 453.071 67.8857H452.443C444.694 67.2519 435.2 68.8304 431.086 70.7317V156.31C431.029 157.829 430.389 159.268 429.299 160.328C428.209 161.388 426.753 161.987 425.232 162.002H405.46C404.69 162.004 403.928 161.854 403.216 161.561C402.504 161.268 401.858 160.837 401.313 160.293C400.769 159.749 400.337 159.103 400.043 158.392C399.749 157.68 399.599 156.918 399.6 156.148V155.831L399.606 62.8214Z" fill="#0068A6"/>
<path d="M482.345 54.2774C482.345 52.382 483.451 50.4807 485.191 49.3746C486.113 48.8541 487.159 48.5937 488.217 48.6211C489.275 48.6485 490.306 48.9626 491.2 49.53L525.053 68.9918C526.793 70.0979 527.905 71.8378 527.905 73.8946C527.905 76.1069 526.638 78.0082 524.736 79.1143C524.736 79.1143 491.044 98.5761 490.883 98.7316C490.007 99.1985 489.029 99.4427 488.037 99.4427C487.044 99.4427 486.067 99.1985 485.191 98.7316C484.277 98.213 483.527 97.4496 483.024 96.5273C482.521 95.6051 482.286 94.5607 482.345 93.5119V77.5359V54.2774Z" fill="#00AEEF"/>
<path d="M536.597 85.4386C536.597 83.5433 537.709 81.642 539.449 80.5358C540.371 80.0163 541.417 79.7569 542.475 79.7853C543.534 79.8137 544.564 80.1289 545.458 80.6973L579.317 100.153C580.186 100.642 580.908 101.354 581.408 102.216C581.909 103.079 582.169 104.059 582.163 105.056C582.163 107.268 580.895 109.169 578.994 110.276C578.994 110.276 545.302 129.737 545.147 129.737C544.268 130.218 543.277 130.456 542.276 130.428C541.275 130.4 540.299 130.105 539.449 129.576C538.535 129.057 537.785 128.294 537.282 127.372C536.779 126.449 536.544 125.405 536.603 124.356L536.597 85.4386Z" fill="#FFCB05"/>
<path d="M482.345 116.764C482.345 114.868 483.451 112.967 485.191 111.861C486.113 111.34 487.159 111.08 488.217 111.107C489.275 111.135 490.306 111.449 491.2 112.016L525.053 131.478C525.923 131.966 526.646 132.678 527.148 133.541C527.649 134.403 527.911 135.384 527.905 136.381C527.905 138.593 526.638 140.65 524.736 141.601C524.736 141.601 491.044 161.062 490.883 161.062C490.005 161.542 489.015 161.78 488.015 161.751C487.015 161.723 486.04 161.429 485.191 160.901C484.277 160.382 483.527 159.619 483.024 158.697C482.521 157.774 482.286 156.73 482.345 155.681V139.705V116.764Z" fill="#00A651"/>
<path d="M382.68 188.428V181.151H355.625V188.428H363.697V227.029H374.608V188.428H382.68ZM404.037 205.671L391.38 207.567C391.063 200.135 393.753 196.494 398.022 196.494C401.98 196.494 404.037 199.34 404.037 205.671ZM413.843 209.468C414.321 197.289 408.94 190.323 398.501 190.323C388.061 190.323 382.202 197.6 382.202 208.834C382.202 220.224 388.534 227.501 399.762 227.501C405.933 227.501 409.891 226.233 412.737 224.972L410.363 218.484C408.468 219.435 405.143 220.38 400.874 220.38C395.493 220.38 392.803 217.851 392.169 212.476L413.843 209.468ZM429.347 174.664H418.752V226.867H429.197V174.664H429.347ZM456.24 205.671L443.583 207.567C443.266 200.135 445.956 196.494 450.231 196.494C454.184 196.494 456.24 199.34 456.24 205.671ZM466.046 209.468C466.524 197.289 461.143 190.323 450.704 190.323C440.264 190.323 434.411 197.6 434.411 208.834C434.411 220.224 440.737 227.501 451.971 227.501C458.136 227.501 462.094 226.233 464.946 224.972L462.566 218.484C460.671 219.435 457.346 220.38 453.077 220.38C447.696 220.38 445.006 217.851 444.378 212.476L466.046 209.468ZM493.418 224.972L491.206 218.64C490.094 219.597 488.826 220.069 486.769 220.069C482.662 220.069 480.133 215.794 480.133 208.679C480.133 201.396 482.345 197.289 486.931 197.289C488.988 197.289 490.255 197.917 491.2 198.712L493.412 193.014C491.834 191.746 488.988 190.485 484.557 190.485C476.485 190.485 469.687 196.81 469.687 208.99C469.687 221.014 476.013 227.662 484.557 227.662C488.982 227.501 491.834 226.395 493.418 224.972ZM516.198 208.834C516.198 215.322 515.248 220.541 510.662 220.541C506.076 220.541 505.125 215.322 505.125 208.834C505.125 202.508 506.07 196.816 510.662 196.816C515.253 196.816 516.198 202.347 516.198 208.834ZM526.638 208.99C526.638 198.233 521.101 190.485 510.5 190.485C500.061 190.485 494.524 198.395 494.524 208.99C494.524 219.585 500.061 227.662 510.5 227.662C521.101 227.662 526.638 219.591 526.638 208.99ZM582.637 226.867V201.713C582.637 195.387 578.213 190.323 569.663 190.323C563.654 190.323 560.019 191.908 557.645 193.964C555.588 191.908 552.108 190.323 546.093 190.323C539.768 190.323 535.498 191.118 531.385 193.014V226.867H541.824V197.444C543.092 196.966 544.198 196.81 546.093 196.81C549.735 196.81 551.791 198.712 551.791 201.558V226.867H562.231V198.55C563.498 197.289 564.921 196.816 566.817 196.816C570.458 196.816 572.036 198.867 572.036 201.719V226.867H582.637Z" fill="#808285"/>
</g>
<defs>
<clipPath id="clip0_306_171">
<rect width="582" height="227.678" fill="white" transform="translate(0.636719)"/>
</clipPath>
</defs>
</svg>
