<svg width="583" height="183" viewBox="0 0 583 183" fill="none" xmlns="http://www.w3.org/2000/svg">
<mask id="mask0_341_60" style="mask-type:luminance" maskUnits="userSpaceOnUse" x="0" y="0" width="583" height="183">
<path d="M582.637 0H0.636719V182.515H582.637V0Z" fill="white"/>
</mask>
<g mask="url(#mask0_341_60)">
<path d="M303.644 50.7717H286.788L277.282 66.1864H294.129L303.644 50.7717ZM347.37 91.3306C338.54 92.061 322.94 99.9602 314.443 117.219C305.945 134.479 305.914 145.133 305.914 145.133C305.914 145.133 310.396 140.22 317.265 135.076C324.135 129.932 329.248 128.105 329.248 128.105C329.248 128.105 330.523 121.768 333.695 115.141C336.781 108.694 341.676 101.982 347.734 100.459C360.013 97.3685 354.133 119.78 345.114 134.394C340.266 142.248 323.072 164.82 308.269 164.82C293.467 164.82 290.61 150.548 293.732 137.203C296.851 123.861 301.168 106.909 322.765 76.1076C344.361 45.3063 367.737 27.046 381.268 19.3725C395.166 11.4959 400.828 14.9477 400.828 14.9477C400.828 14.9477 383.087 25.8757 372.994 39.0231C363.343 51.5895 357.585 65.7296 362.063 72.6586C366.327 79.2605 381.358 79.3846 397.91 55.4869C414.247 31.8966 410.121 17.8694 410.121 17.8694C410.121 17.8694 412.095 17.2264 413.42 17.0487C421.387 15.9883 427.769 18.0893 437.651 23.1571C448.003 28.4674 457.936 36.9841 471.546 43.9526C475.643 39.463 480.203 34.6942 485 30.041C466.653 21.1097 452.724 8.37966 434.729 7.15855C419.066 6.09818 406.717 11.8061 406.717 11.8061C406.717 11.8061 401.939 5.30009 387.202 7.42364C372.464 9.55001 327.057 28.535 288.424 90.4028C253.494 146.34 269.952 178.396 295.06 178.03C322.277 177.629 348.168 147.361 356.93 122.4C365.693 97.439 355.337 90.6735 347.37 91.3306ZM400.8 39.353C396.226 50.5038 389.491 58.2957 382.864 64.2462C374.364 71.8803 369.7 71.6236 367.681 70.0895C362.407 66.0736 369.483 50.9296 381.764 37.3874C393.995 23.8988 404.526 19.7024 404.526 19.7024C404.526 19.8604 406.277 25.9828 400.8 39.353ZM552.362 23.0922C539.908 31.1042 522.641 38.3603 506.067 36.7613C501.876 41.1128 497.381 46.1269 492.871 51.6121C521.637 57.2861 546.798 39.4658 560.193 24.2823C568.549 14.8152 572.675 6.36328 572.675 6.36328C572.675 6.36328 564.697 15.1564 552.362 23.0922Z" fill="white"/>
<path d="M538.757 93.3904H521.032L518.153 97.8405C518.153 97.8405 514.538 91.3176 508.415 91.4219C497.924 91.6024 487.425 99.6115 475.225 113.503C466.283 123.681 451.46 146.341 451.46 146.341C451.46 146.341 440.087 163.868 434.334 162.495C424.525 160.151 442.566 123.859 442.566 123.859C442.566 123.859 452.05 118.002 464.34 107.66C472.078 101.151 480.981 92.1975 489.165 83.8978C496.607 76.3484 505.378 66.0973 513.714 54.8676C511.579 55.206 509.391 55.4344 507.16 55.5444C499.684 65.4035 491.703 74.2277 484.915 81.2413C474.811 91.6814 465.516 100.224 458.761 105.672C452.289 110.889 448.138 113.238 448.138 113.238C448.138 113.238 460.485 87.8827 481.063 59.8676C501.641 31.8554 530.455 5.83131 528.196 18.1778C527.55 21.7227 525.347 26.8074 522.022 32.8424C524.363 32.3546 526.636 31.7454 528.83 31.0517C533.788 20.8175 535.477 12.3825 531.777 9.94586C516.678 0.00212955 478.274 41.1477 459.021 65.0454C439.771 88.943 422.348 125.464 422.348 125.464C422.348 125.464 419.336 126.727 416.006 127.359C413.905 127.759 413.008 127.672 412.664 127.536C412.492 127.466 412.472 127.347 412.472 127.347C412.472 127.347 429.407 95.6888 412.069 91.4896C395.337 87.4399 366.346 118.394 356.039 139.925C348.966 154.697 344.975 173.293 357.105 177.72C370.241 182.517 392.554 158.535 397.799 151.567C403.044 144.595 409.593 133.005 409.593 133.005C409.593 133.005 412.796 132.835 414.548 132.579C417.898 132.085 419.466 131.673 419.466 131.673C419.466 131.673 417.294 137.362 414.945 144.573C410.566 158.019 406.615 177.258 422.382 178.163C432.427 178.736 447.165 160.594 447.165 160.594C447.165 160.594 443.2 176.725 456.237 178.163C465.863 179.223 479.87 164.353 479.87 164.353C479.87 164.353 476.819 177.165 486.576 178.293C494.929 179.26 506.788 169.466 516.512 158.69C527.13 146.925 535.274 134.04 535.274 134.04H529.101C529.101 134.04 515.437 154.779 505.843 160.329C497.967 164.886 500.666 157.585 503.054 153.758C505.688 149.536 538.748 93.3904 538.748 93.3932L538.757 93.3904ZM403.716 132.452C403.473 133.007 399.037 140.726 394.291 146.795C389.178 153.335 379.818 163.177 374.192 161.096C365.396 157.841 375.074 138.679 381.403 129.384C387.731 120.088 388.45 119.46 388.628 119.217C388.806 118.974 388.983 118.752 389.138 119.039C389.294 119.327 391.307 123.145 395.283 126.459C399.277 129.787 403.118 131.544 403.428 131.654C403.738 131.764 403.961 131.896 403.716 132.449V132.452ZM407.672 125.545C407.117 126.47 406.719 126.515 405.566 126.208C403.535 125.658 395.123 121.769 395.188 113.142C395.247 104.736 407.097 96.501 411.744 100.02C416.082 103.303 414.009 111.696 412.373 115.977C410.74 120.255 408.036 124.939 407.672 125.545ZM488.192 146.341C485.852 149.55 483.894 152.449 482.129 154.485C478.356 158.842 475.894 160.87 473.7 161.406C472.594 161.674 471.224 161.609 470.315 161.059C467.095 159.099 469.351 151.468 474.957 141.208C480.087 131.831 486.015 122.449 495.759 111.648C505.542 100.804 509.284 100.283 512.022 100.407C514.326 100.506 514.653 102.928 514.653 102.928C514.653 102.928 514.49 103.489 514.123 104.124C510.894 109.722 494.628 137.517 488.189 146.341H488.192ZM226.748 159.906C216 153.264 202.213 149.003 186.372 148.865C145.565 148.51 101.134 168.335 71.0404 168.603C35.5464 168.913 33.7782 141.606 36.4094 126.611C42.0722 94.3069 64.9856 63.4887 79.7179 47.2391C94.453 30.9896 109.893 18.3809 122.73 15.1575C135.568 11.9341 134.361 21.6973 132.79 23.0313C131.168 23.0651 128.058 23.4148 126.292 24.6359C123.528 26.5423 119.837 30.0336 119.606 35.5695C119.208 44.0975 130.229 45.5922 138.196 27.7352C143.63 15.5551 135.012 7.28931 127.855 6.49404C118.038 5.39983 103.035 8.81217 85.1269 20.3211C53.959 40.3496 12.2692 84.8257 11.206 134.172C10.5996 162.322 28.9896 178.163 54.2212 178.163C79.4528 178.163 113.709 162.712 147.158 162.317C167.869 162.139 181.273 169.398 188.061 181.22C188.061 181.22 194.807 169.999 209.83 169.398C224.692 168.8 241.054 172.966 254.486 182.407C250.005 175.932 237.337 166.448 226.745 159.906H226.748Z" fill="white"/>
<path d="M133.813 49.0466C116.706 44.6867 88.2963 73.8072 76.3249 97.5075C68.9418 112.127 65.7043 130.5 78.8489 135.28C91.9935 140.06 114.295 116.095 119.54 109.126C124.786 102.155 133.37 88.1926 133.37 88.1926C133.37 88.1926 136.004 87.685 137.73 87.2846C139.456 86.8841 142.245 86.0888 142.245 86.0888C142.245 86.0888 139.01 91.8531 136.092 97.7613C132.631 104.767 123.229 128.086 141.382 135.08C158.726 141.761 183.416 113.901 184.713 113.374C184.713 113.374 177.364 132.359 188.78 135.28C201.307 138.484 215.035 122.435 215.035 122.435C215.035 122.435 212.145 134.482 221.905 135.613C239.384 137.635 270.301 92.9276 270.301 92.9276H264.125C264.125 92.9276 248.392 113.173 240.825 117.356C233.259 121.538 235.98 114.107 238.036 110.785C240.659 106.557 274.083 50.7076 274.083 50.7076H256.358L254.303 53.9592C254.303 53.9592 250.65 48.3839 244.545 48.7815C226.781 49.9406 205.644 78.2545 196.349 90.7336C187.057 103.216 167.009 127.045 156.453 122.798C144.95 118.168 156.388 96.9096 163.954 84.4278C172.192 70.8404 186.792 57.3829 192.565 57.2785C199.668 57.146 196.879 63.5843 196.879 63.5843C196.879 63.5843 191.569 62.9216 187.72 67.7665C184.995 71.193 182.739 76.1959 185.328 78.9173C189.51 83.3138 194.956 78.8496 198.208 73.8693C208.346 58.3502 200.929 50.1718 192.965 48.9789C175.999 46.4323 160.37 68.229 148.489 76.3284C140.246 81.9433 136.802 81.5061 136.802 81.5061C136.802 81.5061 151.103 53.4516 133.816 49.0438L133.813 49.0466ZM210.619 99.2334C215.749 89.8537 222.737 80.7983 231.832 69.4473C240.927 58.0963 245.453 57.177 248.191 57.3011C250.495 57.4026 250.822 59.8223 250.822 59.8223C250.822 59.8223 231.062 94.2531 223.893 104.078C221.552 107.288 219.55 110.006 217.785 112.045C214.011 116.402 211.27 118.509 209.155 119.034C208.05 119.304 206.679 119.237 205.768 118.684C202.548 116.724 205.004 109.49 210.616 99.2334H210.619ZM126.754 88.0601C126.509 88.6128 120.866 97.9446 116.122 104.014C111.012 110.553 101.568 120.435 95.9416 118.354C87.1457 115.099 96.5282 96.0692 102.857 86.7769C109.185 77.4818 110.113 76.2861 110.293 76.0464C110.471 75.801 110.646 75.5783 110.801 75.8687C110.956 76.1564 112.97 80.2963 117.329 83.0826C121.689 85.8717 126.159 87.1548 126.469 87.2648C126.78 87.3748 127.002 87.5102 126.757 88.0601H126.754ZM134.112 73.5337C132.476 77.8174 131.015 80.5163 130.714 81.1536C130.229 82.1745 129.013 81.8474 129.013 81.8474C127.628 81.7853 116.864 79.329 116.926 70.7023C116.985 62.2955 128.838 54.0608 133.483 57.5803C137.82 60.8629 135.748 69.2555 134.112 73.5337ZM525.417 167.932C524.382 167.345 523.232 167.055 521.965 167.055C520.699 167.055 519.549 167.348 518.514 167.932C517.479 168.518 516.667 169.313 516.071 170.326C515.479 171.335 515.18 172.435 515.18 173.62C515.18 174.804 515.476 175.924 516.071 176.928C516.664 177.929 517.479 178.724 518.514 179.308C519.549 179.895 520.699 180.185 521.965 180.185C523.232 180.185 524.382 179.892 525.417 179.308C526.452 178.724 527.264 177.929 527.86 176.928C528.452 175.927 528.751 174.824 528.751 173.62C528.751 172.416 528.455 171.335 527.86 170.326C527.267 169.316 526.452 168.518 525.417 167.932ZM526.633 176.338C526.184 177.139 525.553 177.768 524.743 178.228C523.934 178.685 523.006 178.913 521.965 178.913C520.925 178.913 519.997 178.685 519.188 178.228C518.378 177.771 517.749 177.142 517.298 176.338C516.85 175.537 516.624 174.629 516.624 173.62C516.624 172.61 516.85 171.727 517.298 170.927C517.747 170.126 518.381 169.497 519.199 169.037C520.017 168.577 520.939 168.352 521.965 168.352C522.992 168.352 523.914 168.58 524.732 169.037C525.55 169.494 526.184 170.123 526.633 170.927C527.081 171.727 527.307 172.627 527.307 173.62C527.307 174.612 527.081 175.537 526.633 176.338Z" fill="white"/>
<path d="M524.516 173.512C524.707 173.199 524.803 172.849 524.803 172.465C524.803 171.935 524.631 171.492 524.287 171.131C523.943 170.77 523.481 170.59 522.905 170.59H519.465V176.532H520.979V174.366H522.133L523.529 176.532H525.26L523.698 174.222C524.05 174.062 524.324 173.825 524.516 173.512ZM523.072 172.886C522.959 172.99 522.807 173.041 522.615 173.041H520.979V171.887H522.615C522.807 171.887 522.959 171.941 523.072 172.042C523.185 172.147 523.241 172.288 523.241 172.462C523.241 172.637 523.185 172.778 523.072 172.883V172.886Z" fill="white"/>
</g>
</svg>
