<svg width="583" height="183" viewBox="0 0 583 183" fill="none" xmlns="http://www.w3.org/2000/svg">
<g clip-path="url(#clip0_306_177)">
<path d="M303.644 50.7678H286.788L277.282 66.1825H294.129L303.644 50.7678ZM347.37 91.3267C338.54 92.0571 322.94 99.9563 314.443 117.215C305.945 134.475 305.914 145.129 305.914 145.129C305.914 145.129 310.396 140.216 317.265 135.072C324.135 129.928 329.248 128.101 329.248 128.101C329.248 128.101 330.523 121.764 333.695 115.137C336.781 108.69 341.676 101.978 347.734 100.455C360.013 97.3646 354.133 119.776 345.114 134.39C340.266 142.244 323.072 164.816 308.269 164.816C293.467 164.816 290.61 150.544 293.732 137.199C296.851 123.857 301.168 106.905 322.765 76.1037C344.361 45.3024 367.737 27.0421 381.268 19.3686C395.166 11.492 400.828 14.9438 400.828 14.9438C400.828 14.9438 383.087 25.8718 372.994 39.0192C363.343 51.5856 357.585 65.7257 362.063 72.6547C366.327 79.2566 381.358 79.3807 397.91 55.483C414.247 31.8927 410.121 17.8655 410.121 17.8655C410.121 17.8655 412.095 17.2225 413.42 17.0448C421.387 15.9844 427.769 18.0854 437.651 23.1532C448.003 28.4635 457.936 36.9802 471.546 43.9487C475.643 39.4591 480.203 34.6903 485 30.0371C466.653 21.1058 452.724 8.37576 434.729 7.15465C419.066 6.09428 406.717 11.8022 406.717 11.8022C406.717 11.8022 401.939 5.29619 387.202 7.41974C372.464 9.54611 327.057 28.5311 288.424 90.3989C253.494 146.336 269.952 178.392 295.06 178.026C322.277 177.625 348.168 147.357 356.93 122.396C365.693 97.4351 355.337 90.6696 347.37 91.3267ZM400.8 39.3491C396.226 50.4999 389.491 58.2918 382.864 64.2423C374.364 71.8764 369.7 71.6197 367.681 70.0856C362.407 66.0697 369.483 50.9257 381.764 37.3835C393.995 23.8949 404.526 19.6985 404.526 19.6985C404.526 19.8565 406.277 25.9789 400.8 39.3491ZM552.362 23.0883C539.908 31.1003 522.641 38.3564 506.067 36.7574C501.876 41.1089 497.381 46.123 492.871 51.6082C521.637 57.2822 546.798 39.4619 560.193 24.2784C568.549 14.8113 572.675 6.35938 572.675 6.35938C572.675 6.35938 564.697 15.1525 552.362 23.0883Z" fill="#F40009"/>
<path d="M538.757 93.3884H521.032L518.153 97.8385C518.153 97.8385 514.538 91.3156 508.415 91.4199C497.924 91.6004 487.425 99.6095 475.225 113.501C466.283 123.679 451.46 146.339 451.46 146.339C451.46 146.339 440.087 163.866 434.334 162.493C424.525 160.149 442.566 123.857 442.566 123.857C442.566 123.857 452.05 118 464.34 107.658C472.078 101.149 480.981 92.1955 489.165 83.8958C496.607 76.3464 505.378 66.0953 513.714 54.8656C511.579 55.204 509.391 55.4324 507.16 55.5424C499.684 65.4015 491.703 74.2257 484.915 81.2393C474.811 91.6794 465.516 100.222 458.761 105.67C452.289 110.887 448.138 113.236 448.138 113.236C448.138 113.236 460.485 87.8807 481.063 59.8656C501.641 31.8534 530.455 5.82936 528.196 18.1758C527.55 21.7207 525.347 26.8054 522.022 32.8404C524.363 32.3526 526.636 31.7434 528.83 31.0497C533.788 20.8155 535.477 12.3805 531.777 9.94391C516.678 0.000177766 478.274 41.1457 459.021 65.0434C439.771 88.941 422.348 125.462 422.348 125.462C422.348 125.462 419.336 126.725 416.006 127.357C413.905 127.757 413.008 127.67 412.664 127.534C412.492 127.464 412.472 127.345 412.472 127.345C412.472 127.345 429.407 95.6868 412.069 91.4876C395.337 87.4379 366.346 118.392 356.039 139.923C348.966 154.695 344.975 173.291 357.105 177.718C370.241 182.515 392.554 158.533 397.799 151.565C403.044 144.593 409.593 133.003 409.593 133.003C409.593 133.003 412.796 132.833 414.548 132.577C417.898 132.083 419.466 131.671 419.466 131.671C419.466 131.671 417.294 137.36 414.945 144.571C410.566 158.017 406.615 177.256 422.382 178.161C432.427 178.734 447.165 160.592 447.165 160.592C447.165 160.592 443.2 176.723 456.237 178.161C465.863 179.221 479.87 164.351 479.87 164.351C479.87 164.351 476.819 177.163 486.576 178.291C494.929 179.258 506.788 169.464 516.512 158.688C527.13 146.923 535.274 134.038 535.274 134.038H529.101C529.101 134.038 515.437 154.777 505.843 160.327C497.967 164.884 500.666 157.583 503.054 153.756C505.688 149.534 538.748 93.3884 538.748 93.3912L538.757 93.3884ZM403.716 132.45C403.473 133.005 399.037 140.724 394.291 146.793C389.178 153.333 379.818 163.175 374.192 161.094C365.396 157.839 375.074 138.677 381.403 129.382C387.731 120.086 388.45 119.458 388.628 119.215C388.806 118.972 388.983 118.75 389.138 119.037C389.294 119.325 391.307 123.143 395.283 126.457C399.277 129.785 403.118 131.542 403.428 131.652C403.738 131.762 403.961 131.894 403.716 132.447V132.45ZM407.672 125.543C407.117 126.468 406.719 126.513 405.566 126.206C403.535 125.656 395.123 121.767 395.188 113.14C395.247 104.734 407.097 96.499 411.744 100.018C416.082 103.301 414.009 111.694 412.373 115.975C410.74 120.253 408.036 124.937 407.672 125.543ZM488.192 146.339C485.852 149.548 483.894 152.447 482.129 154.483C478.356 158.84 475.894 160.868 473.7 161.404C472.594 161.672 471.224 161.607 470.315 161.057C467.095 159.097 469.351 151.466 474.957 141.206C480.087 131.829 486.015 122.447 495.759 111.646C505.542 100.802 509.284 100.281 512.022 100.405C514.326 100.504 514.653 102.926 514.653 102.926C514.653 102.926 514.49 103.487 514.123 104.122C510.894 109.72 494.628 137.515 488.189 146.339H488.192ZM226.748 159.904C216 153.262 202.213 149.001 186.372 148.863C145.565 148.508 101.134 168.333 71.0404 168.601C35.5464 168.911 33.7782 141.604 36.4094 126.609C42.0722 94.3049 64.9856 63.4867 79.7179 47.2371C94.453 30.9876 109.893 18.3789 122.73 15.1555C135.568 11.9321 134.361 21.6953 132.79 23.0293C131.168 23.0631 128.058 23.4128 126.292 24.6339C123.528 26.5403 119.837 30.0316 119.606 35.5675C119.208 44.0955 130.229 45.5902 138.196 27.7332C143.63 15.5531 135.012 7.28736 127.855 6.49209C118.038 5.39788 103.035 8.81022 85.1269 20.3191C53.959 40.3476 12.2692 84.8237 11.206 134.17C10.5996 162.32 28.9896 178.161 54.2212 178.161C79.4528 178.161 113.709 162.71 147.158 162.315C167.869 162.137 181.273 169.396 188.061 181.218C188.061 181.218 194.807 169.997 209.83 169.396C224.692 168.798 241.054 172.964 254.486 182.405C250.005 175.93 237.337 166.446 226.745 159.904H226.748Z" fill="#F40009"/>
<path d="M133.813 49.0427C116.706 44.6828 88.2963 73.8033 76.3249 97.5036C68.9418 112.123 65.7043 130.496 78.8489 135.276C91.9935 140.056 114.295 116.091 119.54 109.122C124.786 102.151 133.37 88.1887 133.37 88.1887C133.37 88.1887 136.004 87.6811 137.73 87.2807C139.456 86.8802 142.245 86.0849 142.245 86.0849C142.245 86.0849 139.01 91.8492 136.092 97.7574C132.631 104.763 123.229 128.082 141.382 135.076C158.726 141.757 183.416 113.897 184.713 113.37C184.713 113.37 177.364 132.355 188.78 135.276C201.307 138.48 215.035 122.431 215.035 122.431C215.035 122.431 212.145 134.478 221.905 135.609C239.384 137.631 270.301 92.9237 270.301 92.9237H264.125C264.125 92.9237 248.392 113.169 240.825 117.352C233.259 121.534 235.98 114.103 238.036 110.781C240.659 106.553 274.083 50.7037 274.083 50.7037H256.358L254.303 53.9553C254.303 53.9553 250.65 48.38 244.545 48.7776C226.781 49.9367 205.644 78.2506 196.349 90.7297C187.057 103.212 167.009 127.041 156.453 122.794C144.95 118.164 156.388 96.9057 163.954 84.4239C172.192 70.8365 186.792 57.379 192.565 57.2746C199.668 57.1421 196.879 63.5804 196.879 63.5804C196.879 63.5804 191.569 62.9177 187.72 67.7626C184.995 71.1891 182.739 76.192 185.328 78.9134C189.51 83.3099 194.956 78.8457 198.208 73.8654C208.346 58.3463 200.929 50.1679 192.965 48.975C175.999 46.4284 160.37 68.2251 148.489 76.3245C140.246 81.9394 136.802 81.5022 136.802 81.5022C136.802 81.5022 151.103 53.4477 133.816 49.0399L133.813 49.0427ZM210.619 99.2295C215.749 89.8498 222.737 80.7944 231.832 69.4434C240.927 58.0924 245.453 57.1731 248.191 57.2972C250.495 57.3987 250.822 59.8184 250.822 59.8184C250.822 59.8184 231.062 94.2492 223.893 104.074C221.552 107.284 219.55 110.002 217.785 112.041C214.011 116.398 211.27 118.505 209.155 119.03C208.05 119.3 206.679 119.233 205.768 118.68C202.548 116.72 205.004 109.486 210.616 99.2295H210.619ZM126.754 88.0562C126.509 88.6089 120.866 97.9407 116.122 104.01C111.012 110.549 101.568 120.431 95.9416 118.35C87.1457 115.095 96.5282 96.0653 102.857 86.773C109.185 77.4779 110.113 76.2822 110.293 76.0425C110.471 75.7971 110.646 75.5744 110.801 75.8648C110.956 76.1525 112.97 80.2924 117.329 83.0787C121.689 85.8678 126.159 87.1509 126.469 87.2609C126.78 87.3709 127.002 87.5063 126.757 88.0562H126.754ZM134.112 73.5298C132.476 77.8135 131.015 80.5124 130.714 81.1497C130.229 82.1706 129.013 81.8435 129.013 81.8435C127.628 81.7814 116.864 79.3251 116.926 70.6984C116.985 62.2916 128.838 54.0569 133.483 57.5764C137.82 60.859 135.748 69.2516 134.112 73.5298ZM525.417 167.928C524.382 167.341 523.232 167.051 521.965 167.051C520.699 167.051 519.549 167.344 518.514 167.928C517.479 168.514 516.667 169.309 516.071 170.322C515.479 171.331 515.18 172.431 515.18 173.616C515.18 174.8 515.476 175.92 516.071 176.924C516.664 177.925 517.479 178.72 518.514 179.304C519.549 179.891 520.699 180.181 521.965 180.181C523.232 180.181 524.382 179.888 525.417 179.304C526.452 178.72 527.264 177.925 527.86 176.924C528.452 175.923 528.751 174.82 528.751 173.616C528.751 172.412 528.455 171.331 527.86 170.322C527.267 169.312 526.452 168.514 525.417 167.928ZM526.633 176.334C526.184 177.135 525.553 177.764 524.743 178.224C523.934 178.681 523.006 178.909 521.965 178.909C520.925 178.909 519.997 178.681 519.188 178.224C518.378 177.767 517.749 177.138 517.298 176.334C516.85 175.533 516.624 174.625 516.624 173.616C516.624 172.606 516.85 171.723 517.298 170.923C517.747 170.122 518.381 169.493 519.199 169.033C520.017 168.573 520.939 168.348 521.965 168.348C522.992 168.348 523.914 168.576 524.732 169.033C525.55 169.49 526.184 170.119 526.633 170.923C527.081 171.723 527.307 172.623 527.307 173.616C527.307 174.608 527.081 175.533 526.633 176.334Z" fill="#F40009"/>
<path d="M524.516 173.508C524.707 173.195 524.803 172.845 524.803 172.461C524.803 171.931 524.631 171.488 524.287 171.127C523.943 170.766 523.481 170.586 522.905 170.586H519.465V176.528H520.979V174.362H522.133L523.529 176.528H525.26L523.698 174.218C524.05 174.058 524.324 173.821 524.516 173.508ZM523.072 172.882C522.959 172.986 522.807 173.037 522.615 173.037H520.979V171.883H522.615C522.807 171.883 522.959 171.937 523.072 172.038C523.185 172.143 523.241 172.284 523.241 172.458C523.241 172.633 523.185 172.774 523.072 172.879V172.882Z" fill="#F40009"/>
</g>
<defs>
<clipPath id="clip0_306_177">
<rect width="582" height="182.515" fill="white" transform="translate(0.636719)"/>
</clipPath>
</defs>
</svg>
