<svg width="616" height="284" viewBox="0 0 616 284" fill="none" xmlns="http://www.w3.org/2000/svg">
<g clip-path="url(#clip0_306_163)">
<path d="M308.592 132.18L273.284 85.2834H333.924L343.329 71.994H263.839L219.853 12.8347H396.539L308.592 132.18ZM256.435 202.965L168.371 84.8287H257.383L300.629 142.988L256.435 202.965ZM466.792 75.8652C466.258 74.8035 465.439 73.911 464.428 73.2871C463.416 72.6632 462.251 72.3325 461.063 72.3318H378.897L369.739 84.9586V85.1665H448.306L360.996 202.654L316.607 142.949L414.414 10.2236C415.843 8.27502 416.064 5.6769 414.972 3.52046C413.881 1.36401 411.673 0 409.243 0H207.096C204.667 0 202.459 1.36401 201.368 3.53345C200.276 5.70288 200.51 8.301 201.952 10.2496L247.874 71.994H155.615C154.424 71.9912 153.255 72.3204 152.241 72.9446C151.227 73.5688 150.407 74.4633 149.872 75.5277C149.338 76.5921 149.111 77.7844 149.217 78.9707C149.322 80.1569 149.756 81.2903 150.47 82.2436L251.343 217.567C251.939 218.369 252.715 219.02 253.608 219.469C254.502 219.918 255.487 220.152 256.487 220.152H256.5C258.526 220.152 260.436 219.178 261.644 217.541L308.657 153.744L355.852 217.229C357.06 218.853 358.97 219.814 360.996 219.814C363.023 219.814 364.932 218.853 366.141 217.229L466.22 82.5684C467.662 80.6198 467.896 78.0216 466.805 75.8522L466.792 75.8652Z" fill="#FF0000"/>
<path d="M40.7134 283.507V259.942L28.2554 283.507H21.3444L9.00331 259.942V283.507H0.910156V252.564H14.6023L24.9818 273.063L35.2444 252.564H48.8455V283.507H40.7134ZM69.3707 271.491H81.491L75.4373 259.241L69.3707 271.491ZM63.5639 283.507H53.9768L69.7474 252.564H81.3611L96.7939 283.507H87.2978L84.6217 277.895H66.3569L63.5639 283.507ZM109.979 274.18C109.979 275.414 110.356 276.22 111.123 276.596C111.967 276.908 113.058 277.064 114.396 277.064H118.475L124.256 276.882C125.841 276.882 126.88 276.661 127.361 276.233C127.841 275.804 128.088 275.128 128.088 274.206C128.088 273.375 127.815 272.725 127.27 272.231C126.711 271.738 125.659 271.491 124.113 271.491H122.71L108.55 271.114C105.926 271.114 104.043 270.387 102.912 268.932C101.834 267.412 101.302 265.152 101.302 262.164C101.302 259.631 101.639 257.656 102.315 256.253C102.99 254.85 104.251 253.863 106.082 253.304C107.069 253.018 108.161 252.797 109.369 252.629C110.564 252.46 111.863 252.382 113.24 252.382L119.216 252.239H125.23C126.477 252.239 127.556 252.278 128.478 252.382C129.4 252.473 130.245 252.655 131.037 252.901C132.479 253.278 133.505 254.032 134.116 255.149C134.727 256.266 135.116 257.292 135.298 258.215C135.48 259.137 135.571 260.397 135.571 261.982H127.14C127.14 260.93 126.854 260.176 126.27 259.734C125.685 259.293 124.88 259.059 123.827 259.059L119.67 259.007L113.097 259.241C112.279 259.241 111.551 259.423 110.915 259.786C110.278 260.15 109.966 260.761 109.966 261.618C109.966 262.761 110.317 263.541 111.032 263.956C111.369 264.112 111.785 264.242 112.279 264.333C112.772 264.424 113.344 264.476 113.993 264.476H126.322C129.998 264.476 132.635 265.113 134.246 266.386C135.909 267.594 136.74 270.101 136.74 273.894C136.74 277.545 136 280.052 134.519 281.416C133.038 282.78 130.583 283.455 127.166 283.455L116.137 283.78L110.369 283.637C107.29 283.637 105.03 283.105 103.601 282.026C102.172 280.948 101.458 278.779 101.458 275.518V273.66H109.888L109.927 274.167L109.979 274.18ZM151.64 274.18C151.64 275.414 152.017 276.22 152.783 276.596C153.628 276.908 154.719 277.064 156.057 277.064H160.136L165.917 276.882C167.502 276.882 168.541 276.661 169.022 276.233C169.502 275.804 169.749 275.128 169.749 274.206C169.749 273.375 169.476 272.725 168.931 272.231C168.372 271.738 167.32 271.491 165.774 271.491H164.371L150.211 271.114C147.587 271.114 145.704 270.387 144.573 268.932C143.495 267.412 142.963 265.152 142.963 262.164C142.963 259.631 143.3 257.656 143.976 256.253C144.651 254.85 145.911 253.863 147.743 253.304C148.73 253.018 149.822 252.797 151.03 252.629C152.225 252.46 153.524 252.382 154.901 252.382L160.877 252.239H166.891C168.138 252.239 169.217 252.278 170.139 252.382C171.061 252.473 171.919 252.655 172.698 252.901C174.14 253.278 175.166 254.032 175.777 255.149C176.387 256.266 176.777 257.292 176.959 258.215C177.141 259.137 177.232 260.397 177.232 261.982H168.801C168.801 260.93 168.515 260.176 167.931 259.734C167.359 259.293 166.541 259.059 165.488 259.059L161.331 259.007L154.758 259.241C153.94 259.241 153.212 259.423 152.576 259.786C151.939 260.15 151.627 260.761 151.627 261.618C151.627 262.761 151.978 263.541 152.693 263.956C153.03 264.112 153.446 264.242 153.94 264.333C154.433 264.424 155.005 264.476 155.654 264.476H167.982C171.659 264.476 174.296 265.113 175.907 266.386C177.57 267.594 178.401 270.101 178.401 273.894C178.401 277.545 177.66 280.052 176.18 281.416C174.699 282.78 172.243 283.455 168.827 283.455L157.798 283.78L152.03 283.637C148.951 283.637 146.691 283.105 145.262 282.026C143.833 280.948 143.118 278.779 143.118 275.518V273.66H151.549L151.588 274.167L151.64 274.18ZM216.749 252.564V259.618H193.821V264.905H215.216V271.023H193.821V276.492H216.749V283.494H185.208V252.564H216.749ZM260.956 252.564L245.056 272.738V283.494H236.417V272.738L220.27 252.564H231.117L240.691 265.32L250.187 252.564H260.956ZM311.477 252.564V259.618H289.627V264.905H311.477V271.036H289.627V283.52H280.845V252.564H311.477ZM348.968 252.564V259.618H325.572V264.905H347.422V271.036H325.572V276.518H348.968V283.52H316.79V252.564H348.968ZM378.651 268.113C380.639 268.113 381.873 267.854 382.367 267.321C382.86 266.788 383.107 265.593 383.107 263.749C383.107 262.683 383.016 261.93 382.821 261.475C382.639 261.021 382.237 260.67 381.639 260.423L380.21 260.098H364.258V268.126H378.664L378.651 268.113ZM382.328 252.564C385.822 252.564 388.29 253.291 389.719 254.746C390.473 255.461 391.031 256.435 391.408 257.682C391.785 258.916 391.967 260.488 391.967 262.385V262.904C391.967 264.203 391.902 265.294 391.759 266.165C391.616 267.035 391.33 267.828 390.889 268.542C390.46 269.257 389.953 269.815 389.369 270.218C388.966 270.465 387.758 270.971 385.731 271.712C387.693 271.985 389.161 272.543 390.148 273.349C391.135 274.167 391.616 275.596 391.616 277.623V283.533H382.704V280.584C382.704 279.103 382.587 277.921 382.341 277.012C382.094 276.103 380.951 275.648 378.898 275.648H364.245V283.533H355.463V252.577H382.328V252.564ZM436.265 266.074L436.304 272.582C436.304 276.427 435.693 279.272 434.459 281.104C433.238 282.936 430.848 283.845 427.301 283.845H412.934C409.647 283.845 407.036 283.611 405.1 283.157C403.165 282.689 401.619 281.624 400.45 279.961C399.28 278.311 398.696 275.791 398.696 272.413L398.605 268.503C398.605 262.462 399.293 258.28 400.683 255.954C402.073 253.629 405.321 252.473 410.452 252.473L417.026 252.239H419.455L425.34 252.473C429.146 252.473 431.913 253.174 433.628 254.564C435.342 255.954 436.2 258.656 436.2 262.644V263.19H427.639C427.639 262.463 427.548 261.852 427.353 261.345C427.158 260.839 426.834 260.501 426.353 260.332C425.872 260.163 425.288 260.02 424.599 259.903H422.43L412.245 259.721C410.167 259.721 408.855 260.28 408.296 261.384C407.75 262.501 407.478 264.333 407.478 266.892V269.789C407.478 271.946 407.737 273.531 408.257 274.557C408.777 275.583 409.569 276.194 410.634 276.375L412.973 276.609H422.884C424.378 276.609 425.547 276.336 426.392 275.804C427.223 275.271 427.652 274.258 427.652 272.777V271.881H416.493V266.074H436.265ZM480.225 270.244V272.05C480.225 276.843 479.03 280.013 476.653 281.559C474.275 283.105 470.664 283.884 465.818 283.884H458.635C456.647 283.884 454.958 283.832 453.568 283.741C452.178 283.65 450.957 283.481 449.892 283.234C447.904 282.832 446.28 281.728 445.02 279.935C443.76 278.142 443.137 275.362 443.137 271.608V252.603H451.918V268.867C451.918 271.907 452.269 273.92 452.958 274.882C453.659 275.843 455.4 276.323 458.193 276.323H465.766C468.157 276.323 469.69 275.921 470.365 275.115C471.041 274.31 471.378 272.673 471.378 270.218V252.616H480.212V270.257L480.225 270.244ZM496.009 274.193C496.009 275.427 496.398 276.233 497.178 276.609C498.048 276.921 499.165 277.077 500.516 277.077H504.673L510.571 276.895C512.195 276.895 513.247 276.674 513.728 276.246C514.221 275.817 514.468 275.141 514.468 274.219C514.468 273.388 514.182 272.725 513.624 272.244C513.065 271.751 511.987 271.504 510.402 271.504H508.973L494.528 271.127C491.839 271.127 489.929 270.4 488.773 268.945C487.669 267.425 487.123 265.165 487.123 262.177C487.123 259.644 487.461 257.669 488.162 256.253C488.851 254.85 490.137 253.863 492.007 253.304C493.021 253.031 494.138 252.797 495.359 252.629C496.58 252.46 497.905 252.369 499.321 252.369L505.427 252.226H511.571C512.844 252.226 513.949 252.265 514.884 252.369C515.819 252.46 516.69 252.642 517.495 252.888C518.963 253.265 520.015 254.006 520.626 255.136C521.249 256.266 521.652 257.279 521.834 258.202C522.016 259.124 522.12 260.384 522.12 261.969H513.507C513.507 260.917 513.208 260.163 512.624 259.721C512.026 259.28 511.195 259.046 510.129 259.046L505.894 258.994L499.191 259.228C498.347 259.228 497.619 259.41 496.957 259.773C496.307 260.137 495.983 260.748 495.983 261.605C495.983 262.748 496.346 263.528 497.061 263.943C497.399 264.099 497.827 264.229 498.334 264.32C498.841 264.411 499.425 264.463 500.088 264.463H512.676C516.43 264.463 519.119 265.1 520.769 266.373C522.47 267.581 523.315 270.088 523.315 273.894C523.315 277.545 522.561 280.052 521.042 281.416C519.535 282.78 517.027 283.455 513.533 283.455L502.283 283.78L496.398 283.637C493.255 283.637 490.955 283.105 489.5 282.026C488.045 280.948 487.318 278.779 487.318 275.518V273.66H495.931L495.97 274.167L496.009 274.193ZM544.113 276.272H553.323C555.778 276.272 557.545 275.986 558.649 275.427C559.741 274.869 560.299 273.44 560.299 271.127L560.39 266.918C560.39 265.515 560.312 264.307 560.156 263.281C560 262.255 559.676 261.501 559.208 261.034C558.74 260.566 558.013 260.254 557.064 260.098C556.116 259.942 555.415 259.851 554.973 259.838C554.531 259.825 554.168 259.812 553.908 259.812H545.165C543.113 259.812 541.606 260.033 540.618 260.475C539.579 260.878 538.982 261.826 538.8 263.294L538.579 266.814V268.919C538.579 271.764 538.878 273.699 539.488 274.713C540.099 275.726 541.632 276.233 544.113 276.233V276.272ZM548.867 252.226L555.869 252.369C561.001 252.369 564.521 253.278 566.405 255.097C568.301 256.915 569.237 260.553 569.237 266.022V267.503C569.237 273.92 568.483 278.22 566.989 280.39C565.495 282.559 561.702 283.65 555.61 283.65L548.997 283.832H546.23L540.255 283.65C536.942 283.65 534.37 282.832 532.538 281.208C530.707 279.584 529.797 276.96 529.797 273.323L529.706 267.607C529.706 261.319 530.447 257.201 531.928 255.266C533.409 253.33 536.981 252.356 542.632 252.356L548.867 252.213V252.226ZM601.791 283.52L584.384 260.267V283.52H576.122V252.564H590.1L607.494 275.765V252.564H615.756V283.52H601.791Z" fill="black"/>
</g>
<defs>
<clipPath id="clip0_306_163">
<rect width="615" height="283.884" fill="white" transform="translate(0.832031)"/>
</clipPath>
</defs>
</svg>
