<svg width="616" height="284" viewBox="0 0 616 284" fill="none" xmlns="http://www.w3.org/2000/svg">
<g clip-path="url(#clip0_341_69)">
<mask id="mask0_341_69" style="mask-type:luminance" maskUnits="userSpaceOnUse" x="0" y="0" width="616" height="284">
<path d="M615.832 0H0.832031V283.884H615.832V0Z" fill="white"/>
</mask>
<g mask="url(#mask0_341_69)">
<path d="M308.592 132.18L273.284 85.2834H333.924L343.329 71.994H263.839L219.853 12.8347H396.539L308.592 132.18ZM256.435 202.965L168.371 84.8287H257.383L300.629 142.988L256.435 202.965ZM466.792 75.8652C466.258 74.8035 465.439 73.911 464.428 73.2871C463.416 72.6632 462.251 72.3325 461.063 72.3318H378.897L369.739 84.9586V85.1665H448.306L360.996 202.654L316.607 142.949L414.414 10.2236C415.843 8.27502 416.064 5.6769 414.972 3.52046C413.881 1.36401 411.673 0 409.243 0H207.096C204.667 0 202.459 1.36401 201.368 3.53345C200.276 5.70288 200.51 8.301 201.952 10.2496L247.874 71.994H155.615C154.424 71.9912 153.255 72.3204 152.241 72.9446C151.227 73.5688 150.407 74.4633 149.872 75.5277C149.338 76.5921 149.111 77.7844 149.217 78.9707C149.322 80.1569 149.756 81.2903 150.47 82.2436L251.343 217.567C251.939 218.369 252.715 219.02 253.608 219.469C254.502 219.918 255.487 220.152 256.487 220.152H256.5C258.526 220.152 260.436 219.178 261.644 217.541L308.657 153.744L355.852 217.229C357.06 218.853 358.97 219.814 360.996 219.814C363.023 219.814 364.932 218.853 366.141 217.229L466.22 82.5684C467.662 80.6198 467.896 78.0216 466.805 75.8522L466.792 75.8652Z" fill="white"/>
<path d="M40.7134 283.509V259.944L28.2554 283.509H21.3444L9.00331 259.944V283.509H0.910156V252.566H14.6023L24.9818 273.065L35.2444 252.566H48.8455V283.509H40.7134ZM69.3707 271.493H81.491L75.4373 259.243L69.3707 271.493ZM63.5639 283.509H53.9768L69.7474 252.566H81.3611L96.7939 283.509H87.2978L84.6217 277.897H66.3569L63.5639 283.509ZM109.979 274.182C109.979 275.416 110.356 276.222 111.123 276.598C111.967 276.91 113.058 277.066 114.396 277.066H118.475L124.256 276.884C125.841 276.884 126.88 276.663 127.361 276.235C127.841 275.806 128.088 275.13 128.088 274.208C128.088 273.377 127.815 272.727 127.27 272.233C126.711 271.74 125.659 271.493 124.113 271.493H122.71L108.55 271.116C105.926 271.116 104.043 270.389 102.912 268.934C101.834 267.414 101.302 265.154 101.302 262.166C101.302 259.633 101.639 257.658 102.315 256.255C102.99 254.852 104.251 253.865 106.082 253.306C107.069 253.02 108.161 252.799 109.369 252.631C110.564 252.462 111.863 252.384 113.24 252.384L119.216 252.241H125.23C126.477 252.241 127.556 252.28 128.478 252.384C129.4 252.475 130.245 252.657 131.037 252.903C132.479 253.28 133.505 254.034 134.116 255.151C134.727 256.268 135.116 257.294 135.298 258.217C135.48 259.139 135.571 260.399 135.571 261.984H127.14C127.14 260.932 126.854 260.178 126.27 259.736C125.685 259.295 124.88 259.061 123.827 259.061L119.67 259.009L113.097 259.243C112.279 259.243 111.551 259.425 110.915 259.788C110.278 260.152 109.966 260.763 109.966 261.62C109.966 262.763 110.317 263.543 111.032 263.958C111.369 264.114 111.785 264.244 112.279 264.335C112.772 264.426 113.344 264.478 113.993 264.478H126.322C129.998 264.478 132.635 265.115 134.246 266.388C135.909 267.596 136.74 270.103 136.74 273.896C136.74 277.547 136 280.054 134.519 281.418C133.038 282.782 130.583 283.457 127.166 283.457L116.137 283.782L110.369 283.639C107.29 283.639 105.03 283.107 103.601 282.028C102.172 280.95 101.458 278.781 101.458 275.52V273.662H109.888L109.927 274.169L109.979 274.182ZM151.64 274.182C151.64 275.416 152.017 276.222 152.783 276.598C153.628 276.91 154.719 277.066 156.057 277.066H160.136L165.917 276.884C167.502 276.884 168.541 276.663 169.022 276.235C169.502 275.806 169.749 275.13 169.749 274.208C169.749 273.377 169.476 272.727 168.931 272.233C168.372 271.74 167.32 271.493 165.774 271.493H164.371L150.211 271.116C147.587 271.116 145.704 270.389 144.573 268.934C143.495 267.414 142.963 265.154 142.963 262.166C142.963 259.633 143.3 257.658 143.976 256.255C144.651 254.852 145.911 253.865 147.743 253.306C148.73 253.02 149.822 252.799 151.03 252.631C152.225 252.462 153.524 252.384 154.901 252.384L160.877 252.241H166.891C168.138 252.241 169.217 252.28 170.139 252.384C171.061 252.475 171.919 252.657 172.698 252.903C174.14 253.28 175.166 254.034 175.777 255.151C176.387 256.268 176.777 257.294 176.959 258.217C177.141 259.139 177.232 260.399 177.232 261.984H168.801C168.801 260.932 168.515 260.178 167.931 259.736C167.359 259.295 166.541 259.061 165.488 259.061L161.331 259.009L154.758 259.243C153.94 259.243 153.212 259.425 152.576 259.788C151.939 260.152 151.627 260.763 151.627 261.62C151.627 262.763 151.978 263.543 152.693 263.958C153.03 264.114 153.446 264.244 153.94 264.335C154.433 264.426 155.005 264.478 155.654 264.478H167.982C171.659 264.478 174.296 265.115 175.907 266.388C177.57 267.596 178.401 270.103 178.401 273.896C178.401 277.547 177.66 280.054 176.18 281.418C174.699 282.782 172.243 283.457 168.827 283.457L157.798 283.782L152.03 283.639C148.951 283.639 146.691 283.107 145.262 282.028C143.833 280.95 143.118 278.781 143.118 275.52V273.662H151.549L151.588 274.169L151.64 274.182ZM216.749 252.566V259.62H193.821V264.907H215.216V271.025H193.821V276.494H216.749V283.496H185.208V252.566H216.749ZM260.956 252.566L245.056 272.74V283.496H236.417V272.74L220.27 252.566H231.117L240.691 265.322L250.187 252.566H260.956ZM311.477 252.566V259.62H289.627V264.907H311.477V271.038H289.627V283.522H280.845V252.566H311.477ZM348.968 252.566V259.62H325.572V264.907H347.422V271.038H325.572V276.52H348.968V283.522H316.79V252.566H348.968ZM378.651 268.115C380.639 268.115 381.873 267.856 382.367 267.323C382.86 266.79 383.107 265.595 383.107 263.751C383.107 262.685 383.016 261.932 382.821 261.477C382.639 261.023 382.237 260.672 381.639 260.425L380.21 260.1H364.258V268.128H378.664L378.651 268.115ZM382.328 252.566C385.822 252.566 388.29 253.293 389.719 254.748C390.473 255.463 391.031 256.437 391.408 257.684C391.785 258.918 391.967 260.49 391.967 262.387V262.906C391.967 264.205 391.902 265.296 391.759 266.167C391.616 267.037 391.33 267.83 390.889 268.544C390.46 269.259 389.953 269.817 389.369 270.22C388.966 270.467 387.758 270.973 385.731 271.714C387.693 271.987 389.161 272.545 390.148 273.351C391.135 274.169 391.616 275.598 391.616 277.625V283.535H382.704V280.586C382.704 279.105 382.587 277.923 382.341 277.014C382.094 276.105 380.951 275.65 378.898 275.65H364.245V283.535H355.463V252.579H382.328V252.566ZM436.265 266.076L436.304 272.584C436.304 276.429 435.693 279.274 434.459 281.106C433.238 282.938 430.848 283.847 427.301 283.847H412.934C409.647 283.847 407.036 283.613 405.1 283.159C403.165 282.691 401.619 281.626 400.45 279.963C399.28 278.313 398.696 275.793 398.696 272.415L398.605 268.505C398.605 262.464 399.293 258.282 400.683 255.956C402.073 253.631 405.321 252.475 410.452 252.475L417.026 252.241H419.455L425.34 252.475C429.146 252.475 431.913 253.176 433.628 254.566C435.342 255.956 436.2 258.658 436.2 262.646V263.192H427.639C427.639 262.465 427.548 261.854 427.353 261.347C427.158 260.841 426.834 260.503 426.353 260.334C425.872 260.165 425.288 260.022 424.599 259.905H422.43L412.245 259.723C410.167 259.723 408.855 260.282 408.296 261.386C407.75 262.503 407.478 264.335 407.478 266.894V269.791C407.478 271.948 407.737 273.533 408.257 274.559C408.777 275.585 409.569 276.196 410.634 276.377L412.973 276.611H422.884C424.378 276.611 425.547 276.338 426.392 275.806C427.223 275.273 427.652 274.26 427.652 272.779V271.883H416.493V266.076H436.265ZM480.225 270.246V272.052C480.225 276.845 479.03 280.015 476.653 281.561C474.275 283.107 470.664 283.886 465.818 283.886H458.635C456.647 283.886 454.958 283.834 453.568 283.743C452.178 283.652 450.957 283.483 449.892 283.236C447.904 282.834 446.28 281.73 445.02 279.937C443.76 278.144 443.137 275.364 443.137 271.61V252.605H451.918V268.869C451.918 271.909 452.269 273.922 452.958 274.884C453.659 275.845 455.4 276.325 458.193 276.325H465.766C468.157 276.325 469.69 275.923 470.365 275.117C471.041 274.312 471.378 272.675 471.378 270.22V252.618H480.212V270.259L480.225 270.246ZM496.009 274.195C496.009 275.429 496.398 276.235 497.178 276.611C498.048 276.923 499.165 277.079 500.516 277.079H504.673L510.571 276.897C512.195 276.897 513.247 276.676 513.728 276.248C514.221 275.819 514.468 275.143 514.468 274.221C514.468 273.39 514.182 272.727 513.624 272.246C513.065 271.753 511.987 271.506 510.402 271.506H508.973L494.528 271.129C491.839 271.129 489.929 270.402 488.773 268.947C487.669 267.427 487.123 265.167 487.123 262.179C487.123 259.646 487.461 257.671 488.162 256.255C488.851 254.852 490.137 253.865 492.007 253.306C493.021 253.033 494.138 252.799 495.359 252.631C496.58 252.462 497.905 252.371 499.321 252.371L505.427 252.228H511.571C512.844 252.228 513.949 252.267 514.884 252.371C515.819 252.462 516.69 252.644 517.495 252.89C518.963 253.267 520.015 254.008 520.626 255.138C521.249 256.268 521.652 257.281 521.834 258.204C522.016 259.126 522.12 260.386 522.12 261.971H513.507C513.507 260.919 513.208 260.165 512.624 259.723C512.026 259.282 511.195 259.048 510.129 259.048L505.894 258.996L499.191 259.23C498.347 259.23 497.619 259.412 496.957 259.775C496.307 260.139 495.983 260.75 495.983 261.607C495.983 262.75 496.346 263.53 497.061 263.945C497.399 264.101 497.827 264.231 498.334 264.322C498.841 264.413 499.425 264.465 500.088 264.465H512.676C516.43 264.465 519.119 265.102 520.769 266.375C522.47 267.583 523.315 270.09 523.315 273.896C523.315 277.547 522.561 280.054 521.042 281.418C519.535 282.782 517.027 283.457 513.533 283.457L502.283 283.782L496.398 283.639C493.255 283.639 490.955 283.107 489.5 282.028C488.045 280.95 487.318 278.781 487.318 275.52V273.662H495.931L495.97 274.169L496.009 274.195ZM544.113 276.274H553.323C555.778 276.274 557.545 275.988 558.649 275.429C559.741 274.871 560.299 273.442 560.299 271.129L560.39 266.92C560.39 265.517 560.312 264.309 560.156 263.283C560 262.257 559.676 261.503 559.208 261.036C558.74 260.568 558.013 260.256 557.064 260.1C556.116 259.944 555.415 259.853 554.973 259.84C554.531 259.827 554.168 259.814 553.908 259.814H545.165C543.113 259.814 541.606 260.035 540.618 260.477C539.579 260.88 538.982 261.828 538.8 263.296L538.579 266.816V268.921C538.579 271.766 538.878 273.701 539.488 274.715C540.099 275.728 541.632 276.235 544.113 276.235V276.274ZM548.867 252.228L555.869 252.371C561.001 252.371 564.521 253.28 566.405 255.099C568.301 256.917 569.237 260.555 569.237 266.024V267.505C569.237 273.922 568.483 278.222 566.989 280.392C565.495 282.561 561.702 283.652 555.61 283.652L548.997 283.834H546.23L540.255 283.652C536.942 283.652 534.37 282.834 532.538 281.21C530.707 279.586 529.797 276.962 529.797 273.325L529.706 267.609C529.706 261.321 530.447 257.203 531.928 255.268C533.409 253.332 536.981 252.358 542.632 252.358L548.867 252.215V252.228ZM601.791 283.522L584.384 260.269V283.522H576.122V252.566H590.1L607.494 275.767V252.566H615.756V283.522H601.791Z" fill="#808285"/>
</g>
</g>
<defs>
<clipPath id="clip0_341_69">
<rect width="616" height="284" fill="white"/>
</clipPath>
</defs>
</svg>
