<svg width="468" height="295" viewBox="0 0 468 295" fill="none" xmlns="http://www.w3.org/2000/svg">
<path fill-rule="evenodd" clip-rule="evenodd" d="M131.73 0H331.223V199.098H131.73V0Z" fill="white"/>
<path fill-rule="evenodd" clip-rule="evenodd" d="M12.625 252.676L0 293.105H13.7901L17.6294 280.814H24.9287C28.7127 280.814 32.0497 280.118 34.9398 278.725C37.8299 277.331 40.2028 275.591 42.0584 273.512C43.9139 271.433 45.192 269.176 45.8876 266.745C46.5856 264.312 46.6157 262.057 45.9754 259.973C45.3351 257.894 43.9742 256.156 41.8926 254.765C39.8111 253.374 36.9184 252.676 33.2173 252.676H12.625ZM23.4146 262.283H29.4032C30.8595 262.283 31.8137 262.72 32.2707 263.591C32.7277 264.465 32.808 265.434 32.5193 266.494C32.2305 267.554 31.6153 268.52 30.6787 269.397C29.7592 270.262 28.5365 270.732 27.2739 270.705H20.7856L23.4146 262.283ZM64.6644 252.676L52.0369 293.105H85.9196L88.9202 283.498H68.8276L70.658 277.633H86.8813L89.8844 268.026H73.6611L75.3359 262.66H94.615L97.7311 252.676H64.6644ZM111.022 252.676L107.614 263.591H119.343L110.128 293.105H123.729L132.945 263.591H144.924L148.337 252.676H111.022ZM172.61 262.66H179.912C181.368 262.66 182.332 263.031 182.804 263.782C183.277 264.528 183.374 265.352 183.096 266.243C182.817 267.139 182.227 267.96 181.328 268.709C180.444 269.45 179.323 269.848 178.169 269.831H170.37L172.61 262.66ZM162.438 252.676L149.811 293.105H163.475L167.741 279.443C169.28 279.443 170.792 279.398 172.274 279.32C173.755 279.237 174.96 279.443 175.884 279.943C176.695 280.277 177.145 280.806 177.23 281.532C177.316 282.263 177.23 283.164 176.974 284.249C176.718 285.329 176.361 286.607 175.902 288.083C175.405 289.724 175.047 291.404 174.832 293.105H188.934L189.343 291.797C188.577 291.591 188.231 291.134 188.306 290.423C188.381 289.718 188.627 288.696 189.042 287.367C189.549 285.745 189.991 284.287 190.375 282.998C190.757 281.708 190.925 280.538 190.882 279.473C190.837 278.413 190.523 277.457 189.938 276.603C189.353 275.749 188.344 274.951 186.912 274.2C188.158 274.077 189.486 273.454 190.897 272.332C192.308 271.21 193.544 269.846 194.606 268.242C195.651 266.678 196.424 264.949 196.891 263.127C197.353 261.316 197.255 259.634 196.597 258.07C195.939 256.51 194.586 255.22 192.532 254.205C190.48 253.186 187.477 252.676 183.525 252.676H162.438ZM236.93 251.303C232.137 251.468 227.811 252.631 223.951 254.8C220.095 256.957 216.865 259.647 214.264 262.848C211.663 266.05 209.787 269.492 208.637 273.171C207.487 276.854 207.233 280.267 207.876 283.405C208.517 286.544 210.136 289.158 212.73 291.237C215.326 293.316 219.057 294.355 223.924 294.355C227.542 294.355 230.904 293.753 234.005 292.545C237.106 291.34 239.873 289.735 242.306 287.739C244.739 285.743 246.806 283.458 248.506 280.879C250.206 278.3 251.484 275.636 252.34 272.889C253.046 270.225 253.304 267.606 253.111 265.028C252.918 262.449 252.215 260.139 250.999 258.102C249.786 256.064 248.019 254.419 245.706 253.173C243.391 251.925 240.466 251.303 236.93 251.303ZM234.055 261.909C234.929 261.909 235.765 262.095 236.564 262.469C237.36 262.846 237.98 263.461 238.422 264.312C238.861 265.166 239.102 266.253 239.145 267.589C239.188 268.917 238.914 270.522 238.332 272.39C237.149 276.176 235.6 279.109 233.681 281.188C231.763 283.267 229.556 284.307 227.06 284.307C224.69 284.307 223.095 283.35 222.279 281.437C221.463 279.523 221.646 276.676 222.826 272.889C223.981 269.186 225.591 266.431 227.655 264.621C229.716 262.813 231.851 261.909 234.055 261.909ZM273.811 252.676L261.189 293.107H284.463C287.418 293.107 290.039 292.671 292.329 291.799C294.619 290.928 296.57 289.803 298.185 288.43C299.799 287.056 301.04 285.552 301.906 283.907C302.772 282.265 303.234 280.651 303.292 279.071C303.347 277.487 303.003 276.066 302.255 274.795C301.507 273.525 300.289 272.603 298.599 272.021C301.115 271.021 303.104 269.452 304.563 267.308C306.022 265.168 306.684 263.016 306.546 260.854C306.411 258.687 305.361 256.789 303.4 255.142C301.439 253.5 298.316 252.681 294.032 252.681H273.811V252.676ZM285.279 283.498H277.854L279.958 276.759H287.383C288.588 276.759 289.437 277.113 289.924 277.818C290.409 278.529 290.554 279.295 290.358 280.128C290.16 280.962 289.628 281.733 288.761 282.438C287.895 283.144 286.735 283.498 285.279 283.498ZM282.569 268.397L284.362 262.66H290.102C291.516 262.66 292.483 262.959 293 263.561C293.52 264.164 293.66 264.822 293.417 265.527C293.173 266.233 292.575 266.891 291.619 267.493C290.66 268.096 289.432 268.395 287.935 268.395H282.569V268.397ZM336.273 262.66H343.573C345.029 262.66 345.993 263.031 346.465 263.782C346.937 264.528 347.038 265.352 346.757 266.243C346.478 267.139 345.888 267.96 344.989 268.709C344.105 269.451 342.984 269.849 341.83 269.831H334.031L336.273 262.66ZM326.102 252.676L313.474 293.105H327.139L331.405 279.443C332.944 279.443 334.456 279.398 335.937 279.32C337.421 279.237 338.624 279.443 339.548 279.943C340.359 280.277 340.806 280.806 340.891 281.532C340.976 282.263 340.891 283.164 340.635 284.249C340.379 285.329 340.025 286.607 339.563 288.083C339.065 289.724 338.706 291.404 338.491 293.105H352.592L353.001 291.797C352.233 291.591 351.889 291.134 351.964 290.423C352.037 289.718 352.286 288.696 352.7 287.367C353.207 285.745 353.652 284.287 354.033 282.998C354.413 281.708 354.583 280.538 354.541 279.473C354.506 278.446 354.179 277.45 353.596 276.603C353.009 275.749 352 274.951 350.571 274.2C351.816 274.077 353.145 273.454 354.556 272.332C356.001 271.173 357.253 269.792 358.267 268.242C359.312 266.678 360.085 264.949 360.552 263.127C361.014 261.316 360.916 259.634 360.258 258.07C359.6 256.51 358.244 255.22 356.193 254.205C354.141 253.186 351.136 252.676 347.186 252.676H326.102ZM393.302 252.676L366.073 293.107H379.738L382.686 287.87H395.851L395.524 293.107H409.189L407.338 252.676H393.302ZM387.876 279.443L395.916 266.276L395.798 279.443H387.876ZM454.637 264.465H467.428C467.912 261.846 467.948 259.704 467.533 258.04C467.116 256.377 466.318 255.067 465.14 254.107C463.963 253.151 462.418 252.465 460.51 252.054C458.602 251.637 456.392 251.386 453.879 251.303C448.488 251.386 444.073 252.465 440.638 254.549C437.201 256.628 434.773 259.205 433.357 262.283C431.978 265.364 431.536 267.805 432.036 269.615C432.531 271.425 433.593 272.882 435.227 273.984C436.857 275.086 438.848 275.935 441.198 276.54C443.549 277.145 445.894 277.761 448.237 278.383C449.284 278.755 449.924 279.31 450.155 280.036C450.386 280.761 450.298 281.482 449.889 282.187C449.482 282.893 448.817 283.516 447.9 284.061C446.984 284.6 445.929 284.849 444.734 284.806C443.443 284.806 442.248 284.508 441.146 283.905C440.043 283.302 439.554 282.145 439.669 280.442H426.878C426.098 282.933 425.952 285.067 426.439 286.838C426.889 288.544 427.886 290.057 429.276 291.144C430.68 292.244 432.445 293.057 434.567 293.577C436.694 294.097 438.964 294.358 441.377 294.358C443.707 294.358 446.072 294.034 448.478 293.391C450.826 292.768 453.08 291.833 455.179 290.612C457.23 289.417 459.068 287.889 460.616 286.089C462.161 284.315 463.287 282.215 463.91 279.945C464.369 278.072 464.437 276.457 464.108 275.109C463.786 273.764 463.069 272.546 462.049 271.611C461.005 270.635 459.651 269.801 457.994 269.115C456.337 268.435 454.429 267.815 452.267 267.277C451.265 267.026 450.127 266.768 448.862 266.496C447.596 266.225 446.612 265.884 445.906 265.467C445.417 265.178 445.146 264.809 445.095 264.372C445.045 263.935 445.183 263.488 445.512 263.034C445.844 262.577 446.333 262.17 446.986 261.819C447.636 261.465 448.412 261.244 449.311 261.161C451.056 261.038 452.46 261.206 453.525 261.66C454.589 262.115 454.953 263.051 454.637 264.465Z" fill="#1F5795"/>
<path fill-rule="evenodd" clip-rule="evenodd" d="M332.206 46.4548H133.008V0.361328H332.206V46.4548Z" fill="#ECB73A"/>
<path fill-rule="evenodd" clip-rule="evenodd" d="M133.391 73H332.506V199.519H133.391V73Z" fill="#23835A"/>
<path fill-rule="evenodd" clip-rule="evenodd" d="M151.363 146.179L172.357 72.8343L208.545 72.6108C232.979 72.1991 238.556 94.9507 219.772 108.947C235.676 118.749 225.311 146.779 199.789 146.292L151.363 146.179ZM233.213 146.553L254.131 72.6108L291.627 72.3874C319.094 72.0509 318.422 104.382 295.369 113.512C300.609 114.709 302.407 118.077 302.816 122.305L304.051 147.003H284.029L282.909 125.298C283.02 121.406 280.813 118.935 274.601 118.749L262.249 118.712L254.804 146.553H233.213Z" fill="white"/>
<path fill-rule="evenodd" clip-rule="evenodd" d="M185.93 100.928L189.448 87.1582H207.186C215.344 88.9159 213.586 99.9917 204.381 100.891L185.93 100.928ZM177.355 131.07L182.104 115.203H200.3C208.524 117.229 205.804 129.992 196.288 131.027L177.355 131.07ZM265.987 104.022L270.557 87.5499H288.759C297.075 89.5762 294.278 102.942 284.656 103.977L265.987 104.022Z" fill="#23835A"/>
</svg>
