<svg width="468" height="295" viewBox="0 0 468 295" fill="none" xmlns="http://www.w3.org/2000/svg">
<g clip-path="url(#clip0_341_76)">
<path fill-rule="evenodd" clip-rule="evenodd" d="M131.73 0H331.223V199.098H131.73V0Z" fill="white"/>
<path fill-rule="evenodd" clip-rule="evenodd" d="M12.625 252.678L0 293.107H13.7901L17.6294 280.816H24.9287C28.7127 280.816 32.0497 280.12 34.9398 278.727C37.8299 277.333 40.2028 275.593 42.0584 273.514C43.9139 271.435 45.192 269.178 45.8876 266.747C46.5856 264.314 46.6157 262.059 45.9754 259.975C45.3351 257.896 43.9742 256.158 41.8926 254.767C39.8111 253.376 36.9184 252.678 33.2173 252.678H12.625ZM23.4146 262.285H29.4032C30.8595 262.285 31.8137 262.722 32.2707 263.593C32.7277 264.467 32.808 265.436 32.5193 266.496C32.2305 267.556 31.6153 268.522 30.6787 269.399C29.7592 270.264 28.5365 270.734 27.2739 270.707H20.7856L23.4146 262.285ZM64.6644 252.678L52.0369 293.107H85.9196L88.9202 283.5H68.8276L70.658 277.635H86.8813L89.8844 268.028H73.6611L75.3359 262.662H94.615L97.7311 252.678H64.6644ZM111.022 252.678L107.614 263.593H119.343L110.128 293.107H123.729L132.945 263.593H144.924L148.337 252.678H111.022ZM172.61 262.662H179.912C181.368 262.662 182.332 263.033 182.804 263.784C183.277 264.53 183.374 265.354 183.096 266.245C182.817 267.141 182.227 267.962 181.328 268.711C180.444 269.452 179.323 269.85 178.169 269.833H170.37L172.61 262.662ZM162.438 252.678L149.811 293.107H163.475L167.741 279.445C169.28 279.445 170.792 279.4 172.274 279.322C173.755 279.239 174.96 279.445 175.884 279.945C176.695 280.279 177.145 280.808 177.23 281.534C177.316 282.265 177.23 283.166 176.974 284.251C176.718 285.331 176.361 286.609 175.902 288.085C175.405 289.726 175.047 291.406 174.832 293.107H188.934L189.343 291.799C188.577 291.593 188.231 291.136 188.306 290.425C188.381 289.72 188.627 288.698 189.042 287.369C189.549 285.747 189.991 284.289 190.375 283C190.757 281.71 190.925 280.54 190.882 279.475C190.837 278.415 190.523 277.459 189.938 276.605C189.353 275.751 188.344 274.953 186.912 274.202C188.158 274.079 189.486 273.456 190.897 272.334C192.308 271.212 193.544 269.848 194.606 268.244C195.651 266.68 196.424 264.951 196.891 263.129C197.353 261.318 197.255 259.636 196.597 258.072C195.939 256.512 194.586 255.222 192.532 254.207C190.48 253.188 187.477 252.678 183.525 252.678H162.438ZM236.93 251.305C232.137 251.47 227.811 252.633 223.951 254.802C220.095 256.959 216.865 259.649 214.264 262.85C211.663 266.052 209.787 269.494 208.637 273.173C207.487 276.856 207.233 280.269 207.876 283.407C208.517 286.546 210.136 289.16 212.73 291.239C215.326 293.318 219.057 294.357 223.924 294.357C227.542 294.357 230.904 293.755 234.005 292.547C237.106 291.342 239.873 289.737 242.306 287.741C244.739 285.745 246.806 283.46 248.506 280.881C250.206 278.302 251.484 275.638 252.34 272.891C253.046 270.227 253.304 267.608 253.111 265.03C252.918 262.451 252.215 260.141 250.999 258.104C249.786 256.066 248.019 254.421 245.706 253.175C243.391 251.927 240.466 251.305 236.93 251.305ZM234.055 261.911C234.929 261.911 235.765 262.097 236.564 262.471C237.36 262.848 237.98 263.463 238.422 264.314C238.861 265.168 239.102 266.255 239.145 267.591C239.188 268.919 238.914 270.524 238.332 272.392C237.149 276.178 235.6 279.111 233.681 281.19C231.763 283.269 229.556 284.309 227.06 284.309C224.69 284.309 223.095 283.352 222.279 281.439C221.463 279.525 221.646 276.678 222.826 272.891C223.981 269.188 225.591 266.433 227.655 264.623C229.716 262.815 231.851 261.911 234.055 261.911ZM273.811 252.678L261.189 293.109H284.463C287.418 293.109 290.039 292.673 292.329 291.801C294.619 290.93 296.57 289.805 298.185 288.432C299.799 287.058 301.04 285.554 301.906 283.909C302.772 282.267 303.234 280.653 303.292 279.073C303.347 277.489 303.003 276.068 302.255 274.797C301.507 273.527 300.289 272.605 298.599 272.023C301.115 271.023 303.104 269.454 304.563 267.31C306.022 265.17 306.684 263.018 306.546 260.856C306.411 258.689 305.361 256.791 303.4 255.144C301.439 253.502 298.316 252.683 294.032 252.683H273.811V252.678ZM285.279 283.5H277.854L279.958 276.761H287.383C288.588 276.761 289.437 277.115 289.924 277.82C290.409 278.531 290.554 279.297 290.358 280.13C290.16 280.964 289.628 281.735 288.761 282.44C287.895 283.146 286.735 283.5 285.279 283.5ZM282.569 268.399L284.362 262.662H290.102C291.516 262.662 292.483 262.961 293 263.563C293.52 264.166 293.66 264.824 293.417 265.529C293.173 266.235 292.575 266.893 291.619 267.495C290.66 268.098 289.432 268.397 287.935 268.397H282.569V268.399ZM336.273 262.662H343.573C345.029 262.662 345.993 263.033 346.465 263.784C346.937 264.53 347.038 265.354 346.757 266.245C346.478 267.141 345.888 267.962 344.989 268.711C344.105 269.453 342.984 269.851 341.83 269.833H334.031L336.273 262.662ZM326.102 252.678L313.474 293.107H327.139L331.405 279.445C332.944 279.445 334.456 279.4 335.937 279.322C337.421 279.239 338.624 279.445 339.548 279.945C340.359 280.279 340.806 280.808 340.891 281.534C340.976 282.265 340.891 283.166 340.635 284.251C340.379 285.331 340.025 286.609 339.563 288.085C339.065 289.726 338.706 291.406 338.491 293.107H352.592L353.001 291.799C352.233 291.593 351.889 291.136 351.964 290.425C352.037 289.72 352.286 288.698 352.7 287.369C353.207 285.747 353.652 284.289 354.033 283C354.413 281.71 354.583 280.54 354.541 279.475C354.506 278.448 354.179 277.452 353.596 276.605C353.009 275.751 352 274.953 350.571 274.202C351.816 274.079 353.145 273.456 354.556 272.334C356.001 271.175 357.253 269.794 358.267 268.244C359.312 266.68 360.085 264.951 360.552 263.129C361.014 261.318 360.916 259.636 360.258 258.072C359.6 256.512 358.244 255.222 356.193 254.207C354.141 253.188 351.136 252.678 347.186 252.678H326.102ZM393.302 252.678L366.073 293.109H379.738L382.686 287.872H395.851L395.524 293.109H409.189L407.338 252.678H393.302ZM387.876 279.445L395.916 266.278L395.798 279.445H387.876ZM454.637 264.467H467.428C467.912 261.848 467.948 259.706 467.533 258.042C467.116 256.379 466.318 255.069 465.14 254.109C463.963 253.153 462.418 252.467 460.51 252.056C458.602 251.639 456.392 251.388 453.879 251.305C448.488 251.388 444.073 252.467 440.638 254.551C437.201 256.63 434.773 259.207 433.357 262.285C431.978 265.366 431.536 267.807 432.036 269.617C432.531 271.427 433.593 272.884 435.227 273.986C436.857 275.088 438.848 275.937 441.198 276.542C443.549 277.147 445.894 277.763 448.237 278.385C449.284 278.757 449.924 279.312 450.155 280.038C450.386 280.763 450.298 281.484 449.889 282.189C449.482 282.895 448.817 283.518 447.9 284.063C446.984 284.602 445.929 284.851 444.734 284.808C443.443 284.808 442.248 284.51 441.146 283.907C440.043 283.304 439.554 282.147 439.669 280.444H426.878C426.098 282.935 425.952 285.069 426.439 286.84C426.889 288.546 427.886 290.059 429.276 291.146C430.68 292.246 432.445 293.059 434.567 293.579C436.694 294.099 438.964 294.36 441.377 294.36C443.707 294.36 446.072 294.036 448.478 293.393C450.826 292.77 453.08 291.835 455.179 290.614C457.23 289.419 459.068 287.891 460.616 286.091C462.161 284.317 463.287 282.217 463.91 279.947C464.369 278.074 464.437 276.459 464.108 275.111C463.786 273.766 463.069 272.548 462.049 271.613C461.005 270.637 459.651 269.803 457.994 269.117C456.337 268.437 454.429 267.817 452.267 267.279C451.265 267.028 450.127 266.77 448.862 266.498C447.596 266.227 446.612 265.886 445.906 265.469C445.417 265.18 445.146 264.811 445.095 264.374C445.045 263.937 445.183 263.49 445.512 263.036C445.844 262.579 446.333 262.172 446.986 261.821C447.636 261.467 448.412 261.246 449.311 261.163C451.056 261.04 452.46 261.208 453.525 261.662C454.589 262.117 454.953 263.053 454.637 264.467Z" fill="#808285"/>
<path fill-rule="evenodd" clip-rule="evenodd" d="M331 46H132V0H331V46Z" fill="#B2B2B2"/>
<path fill-rule="evenodd" clip-rule="evenodd" d="M132 73H331V200H132V73Z" fill="#808285"/>
<path fill-rule="evenodd" clip-rule="evenodd" d="M151.363 146.181L172.357 72.8362L208.545 72.6127C232.979 72.201 238.556 94.9526 219.772 108.949C235.676 118.751 225.311 146.781 199.789 146.294L151.363 146.181ZM233.213 146.555L254.131 72.6127L291.627 72.3893C319.094 72.0528 318.422 104.384 295.369 113.514C300.609 114.711 302.407 118.079 302.816 122.307L304.051 147.005H284.029L282.909 125.3C283.02 121.408 280.813 118.937 274.601 118.751L262.249 118.714L254.804 146.555H233.213Z" fill="white"/>
<path fill-rule="evenodd" clip-rule="evenodd" d="M185.93 100.926L189.448 87.1562H207.186C215.344 88.9139 213.586 99.9897 204.381 100.889L185.93 100.926ZM177.355 131.068L182.104 115.201H200.3C208.524 117.227 205.804 129.99 196.288 131.025L177.355 131.068ZM265.987 104.02L270.557 87.5479H288.759C297.075 89.5742 294.278 102.94 284.656 103.975L265.987 104.02Z" fill="#808285"/>
</g>
<defs>
<clipPath id="clip0_341_76">
<rect width="468" height="295" fill="white"/>
</clipPath>
</defs>
</svg>
