<svg width="584" height="241" viewBox="0 0 584 241" fill="none" xmlns="http://www.w3.org/2000/svg">
<g clip-path="url(#clip0_341_83)">
<path fill-rule="evenodd" clip-rule="evenodd" d="M241.361 0L200.845 18.4441V38.8157L241.361 26.1921V0ZM536.542 46.715C523.919 46.715 513.714 51.0614 504.001 60.2835V49.3606H475.616V165.128H504.756V103.748C504.756 87.7228 511.786 74.3811 531.44 74.3811C549.657 74.3811 554.76 87.7228 554.76 103.748V165.128H583.635V94.7528C583.635 68.2961 567.875 46.715 536.542 46.715ZM376.328 93.3165C380.448 78.9921 391.371 72.189 404.712 72.189C418.545 72.189 428.75 78.2362 432.378 93.3165H376.328ZM404.486 46.715C370.016 46.715 346.47 73.6252 346.47 106.658C346.47 139.918 370.243 166.602 404.486 166.602C432.152 166.602 451.087 151.294 458.382 128.995H428.259C424.139 136.025 417.601 139.918 406.186 139.918C388.952 139.918 379.012 131.15 376.101 116.372H461.519C461.783 113.461 462.01 111.269 462.01 108.359C462.01 68.2961 436.271 46.715 404.486 46.715ZM292.347 213.43C276.813 213.43 266.382 202.054 266.382 186.973C266.382 171.931 276.813 160.517 292.347 160.517C307.654 160.517 318.312 171.931 318.312 186.973C318.312 202.054 307.654 213.43 292.347 213.43ZM301.796 110.778L342.841 74.3811V49.3606H244.271V76.3087H301.078L264.681 108.094L288.945 136.252C257.386 138.217 237.96 160.517 237.96 187.238C237.96 217.323 262.489 240.378 292.574 240.378C322.432 240.378 347.453 217.323 347.453 187.238C347.453 171.213 343.068 159.307 333.128 147.666L301.796 110.778ZM29.2163 60.7748V49.3606H0.832031V165.128H29.9722V103.975C29.9722 87.9496 37.0021 75.5906 58.3564 75.5906H67.0871V47.9244H60.7753C48.1517 47.9244 38.9297 51.5528 29.2163 60.7748ZM201.563 165.128H230.93V45.2409L201.563 52.5354V165.128ZM127.522 138.444C109.834 138.444 97.4368 125.594 97.4368 106.658C97.4368 87.7228 109.834 74.6079 127.522 74.6079C145.248 74.6079 157.645 87.7228 157.645 106.658C157.645 125.594 145.248 138.444 127.522 138.444ZM128.013 46.715C94.2997 46.715 68.2966 73.3984 68.2966 106.658C68.2966 141.354 91.1249 166.602 124.876 166.602C136.29 166.602 149.141 161.991 158.363 152.277V165.128H186.747V103.975C186.747 72.189 161.991 46.715 128.013 46.715Z" fill="white"/>
</g>
<defs>
<clipPath id="clip0_341_83">
<rect width="584" height="241" fill="white"/>
</clipPath>
</defs>
</svg>
